<svg xmlns="http://www.w3.org/2000/svg" width="21" height="22" viewBox="0 0 21 22"><path fill="#808191" d="M12.925 1.37a.75.75 0 0 1 .102 1.493l-.102.007H5.657c-2.455 0-4.034 1.626-4.125 4.161l-.004.233v8.082c0 2.602 1.483 4.284 3.906 4.381l.223.004h8.604c2.457 0 4.034-1.619 4.125-4.152l.004-.233V8.308a.75.75 0 0 1 1.493-.102l.007.102v7.039c0 3.39-2.14 5.772-5.394 5.881l-.234.004H5.657c-3.331 0-5.525-2.29-5.625-5.644l-.004-.241V7.264c0-3.392 2.142-5.781 5.394-5.89l.234-.004h7.268zm2.116 6.83a.75.75 0 0 1 .195.96l-.061.093-2.929 3.78a.75.75 0 0 1-.964.193l-.093-.062-2.819-2.214-2.531 3.29a.75.75 0 0 1-.959.198l-.093-.061a.75.75 0 0 1-.198-.959l.061-.093 2.993-3.89a.75.75 0 0 1 .965-.195l.093.062 2.82 2.215 2.467-3.183a.75.75 0 0 1 1.052-.133zM17.995.528c1.476 0 2.672 1.196 2.672 2.672s-1.196 2.672-2.672 2.672-2.672-1.196-2.672-2.672S16.52.528 17.995.528zm0 1.5c-.647 0-1.172.525-1.172 1.172s.525 1.172 1.172 1.172 1.172-.525 1.172-1.172-.525-1.172-1.172-1.172z"/></svg>