<svg xmlns="http://www.w3.org/2000/svg" width="16" height="11" viewBox="0 0 16 11"><path fill="#1b1d21" d="M10.784.089l.069.058 5.012 5.012c.012.012.023.026.033.039l-.045-.051a.5.5 0 0 1 .069.087l.02.035.019.042.014.039.012.046.006.033c.003.018.004.035.005.053v.04c-.001.017-.002.034-.005.051L16 5.5a.5.5 0 0 1-.011.105l-.012.046-.015.04-.019.041-.02.035-.011.017-.013.018c-.01.014-.021.027-.033.039l-.012.012-5 5a.5.5 0 0 1-.765-.638l.058-.069L14.293 6H.5a.5.5 0 0 1-.09-.992L.5 5h13.793L10.146.854a.5.5 0 0 1-.058-.638l.058-.069a.5.5 0 0 1 .638-.058z"/></svg>