<svg xmlns="http://www.w3.org/2000/svg" width="16" height="16" viewBox="0 0 16 16"><path d="M14.5 0A1.5 1.5 0 0 1 16 1.5h0v13a1.5 1.5 0 0 1-1.5 1.5h0-13A1.5 1.5 0 0 1 0 14.5h0v-13A1.5 1.5 0 0 1 1.5 0h0zm0 1h-13a.5.5 0 0 0-.5.5h0v13a.5.5 0 0 0 .5.5h13a.5.5 0 0 0 .5-.5h0v-13a.5.5 0 0 0-.5-.5h0zm-2 2h.012c.021 0 .042.002.062.005L12.5 3a.5.5 0 0 1 .105.011l.046.012.04.015.041.019.035.02.035.024.039.033.024.024c.012.012.023.026.033.039l-.045-.051a.5.5 0 0 1 .069.087l.02.035.019.042.014.039.012.046.006.033c.003.017.004.035.005.052v.02 5a.5.5 0 0 1-.992.09L12 8.5V4.706L6.854 9.854a.5.5 0 0 1-.765-.638l.058-.069L11.292 4H7.5a.5.5 0 0 1-.492-.41L7 3.5a.5.5 0 0 1 .41-.492L7.5 3h5z"/></svg>