<svg xmlns="http://www.w3.org/2000/svg" width="20" height="20" viewBox="0 0 20 20">
  <path fill="#808191" fill-rule="evenodd" d="M5.666,0 L14.335,0 C17.7386,0 20,2.42931 20,5.916 L20,14.084 C20,17.567 17.7319,20 14.335,20 L5.666,20 C2.26222,20 0,17.5705 0,14.084 L0,5.916 C0,2.4295 2.26222,0 5.666,0 Z M14.335,1.5 L5.666,1.5 C3.1155,1.5 1.5,3.23496 1.5,5.916 L1.5,14.084 C1.5,16.765 3.1155,18.5 5.666,18.5 L14.335,18.5 C16.879,18.5 18.5,16.7612 18.5,14.084 L18.5,5.916 C18.5,3.23468 16.8852,1.5 14.335,1.5 Z M10,5.164 C10.3797,5.164 10.6935,5.44615 10.7432,5.81223 L10.75,5.914 L10.75,12.2692 L13.2165,9.7931 C13.4822,9.52627 13.8989,9.50117 14.1929,9.7184 L14.2772,9.79084 C14.544,10.0565 14.5691,10.4732 14.3519,10.7672 L14.2795,10.8515 L10.5315,14.6155 C10.265,14.8831 9.84683,14.9075 9.55276,14.6885 L9.54965,14.6858 C9.52179,14.6648 9.49544,14.642 9.47079,14.6174 L9.46854,14.6155 L5.72054,10.8515 C5.42827,10.558 5.42928,10.0831 5.7228,9.79084 C5.98963,9.52514 6.40635,9.50182 6.69949,9.7203 L6.78346,9.7931 L9.25,12.2706 L9.25,5.914 C9.25,5.49979 9.58579,5.164 10,5.164 Z"/>
</svg>
