<svg xmlns="http://www.w3.org/2000/svg" width="16" height="16" viewBox="0 0 16 16"><path d="M12.231 0a.5.5 0 0 1 .492.41l.008.09V2h1.5a1.5 1.5 0 0 1 1.493 1.356l.007.144v11a1.5 1.5 0 0 1-1.5 1.5h0-12a1.5 1.5 0 0 1-1.5-1.5h0v-11a1.5 1.5 0 0 1 1.5-1.5h1.5V.5a.5.5 0 0 1 .992-.09l.008.09V2h3V.5a.5.5 0 0 1 .992-.09l.008.09V2h3V.5a.5.5 0 0 1 .5-.5zm2.5 6h-13v8.5a.5.5 0 0 0 .41.492l.09.008h12a.5.5 0 0 0 .5-.5h0V6zm-4.5 1a.5.5 0 0 1 .492.41l.008.09V10h2.5a.5.5 0 0 1 .09.992l-.09.008h-2.5v2.5a.5.5 0 0 1-.992.09l-.008-.09V11h-3v2.5a.5.5 0 0 1-.992.09l-.008-.09V11h-2.5a.5.5 0 0 1-.09-.992l.09-.008h2.5V7.5a.5.5 0 0 1 .992-.09l.008.09V10h3V7.5a.5.5 0 0 1 .5-.5zm4-4h-12a.5.5 0 0 0-.5.5h0V5h13V3.5a.5.5 0 0 0-.41-.492L14.231 3z"/></svg>