<svg xmlns="http://www.w3.org/2000/svg" width="15" height="15" viewBox="0 0 15 15">
  <path fill="#808191" d="M7.5,0 C11.6421356,0 15,3.35786438 15,7.5 C15,11.6421356 11.6421356,15 7.5,15 C3.35786438,15 0,11.6421356 0,7.5 C0,3.35786438 3.35786438,0 7.5,0 Z M7.5,1 C3.91014913,1 1,3.91014913 1,7.5 C1,11.0898509 3.91014913,14 7.5,14 C11.0898509,14 14,11.0898509 14,7.5 C14,3.91014913 11.0898509,1 7.5,1 Z M7.5,3 C7.74545989,3 7.94960837,3.17687516 7.99194433,3.41012437 L8,3.5 L8,7 L11.5,7 C11.7454599,7 11.9496084,7.17687516 11.9919443,7.41012437 L12,7.5 C12,7.74545989 11.8231248,7.94960837 11.5898756,7.99194433 L11.5,8 L7.5,8 C7.25454011,8 7.05039163,7.82312484 7.00805567,7.58987563 L7,7.5 L7,3.5 C7,3.22385763 7.22385763,3 7.5,3 Z"/>
</svg>
