<svg xmlns="http://www.w3.org/2000/svg" width="8" height="8" viewBox="0 0 8 8">
  <path fill="#11142D" d="M0.784305503,0.0885911588 L0.853553391,0.146446609 L4,3.293 L7.14644661,0.146446609 C7.34170876,-0.0488155365 7.65829124,-0.0488155365 7.85355339,0.146446609 C8.02711974,0.320012961 8.04640489,0.589437362 7.91140884,0.784305503 L7.85355339,0.853553391 L4.707,4 L7.85355339,7.14644661 C8.04881554,7.34170876 8.04881554,7.65829124 7.85355339,7.85355339 C7.67998704,8.02711974 7.41056264,8.04640489 7.2156945,7.91140884 L7.14644661,7.85355339 L4,4.707 L0.853553391,7.85355339 C0.658291245,8.04881554 0.341708755,8.04881554 0.146446609,7.85355339 C-0.0271197425,7.67998704 -0.0464048927,7.41056264 0.0885911588,7.2156945 L0.146446609,7.14644661 L3.293,4 L0.146446609,0.853553391 C-0.0488155365,0.658291245 -0.0488155365,0.341708755 0.146446609,0.146446609 C0.320012961,-0.0271197425 0.589437362,-0.0464048927 0.784305503,0.0885911588 Z"/>
</svg>
