<svg xmlns="http://www.w3.org/2000/svg" width="20" height="20" viewBox="0 0 20 20"><path fill="#808191" d="M11.951.716l.182.17.719.719c.247.246.571.397.915.431l.149.007h1.028c1.604 0 2.915 1.254 3.007 2.835l.005.177v1.027a1.51 1.51 0 0 0 .338.953l.099.11.719.719c1.132 1.126 1.182 2.928.145 4.115l-.135.145-.728.728c-.245.246-.397.57-.431.914l-.007.149v1.029a3.01 3.01 0 0 1-2.835 3.006l-.177.005h-1.028a1.51 1.51 0 0 0-.953.339l-.11.099-.718.717a3.01 3.01 0 0 1-4.115.146l-.154-.144-.717-.717c-.248-.247-.573-.399-.916-.433l-.148-.007H5.055a3.01 3.01 0 0 1-3.006-2.834l-.005-.177v-1.029a1.51 1.51 0 0 0-.339-.952l-.099-.11-.717-.718A3.01 3.01 0 0 1 .743 8.02l.135-.145.726-.727c.247-.249.399-.573.433-.917l.007-.149V5.056l.005-.177c.088-1.522 1.307-2.742 2.829-2.83l.177-.005h1.029a1.51 1.51 0 0 0 .952-.338l.11-.099.718-.719C8.991-.244 10.794-.294 11.951.716zm-2.91 1.126l-.115.104-.721.722a3.01 3.01 0 0 1-1.924.868l-.198.007H5.055c-.788 0-1.435.604-1.505 1.374l-.006.138v1.027a3.01 3.01 0 0 1-.742 1.978l-.135.146-.727.728a1.51 1.51 0 0 0-.096 2.024l.104.115.719.72c.514.516.823 1.201.871 1.924l.007.198v1.029a1.51 1.51 0 0 0 1.374 1.505l.137.006h1.029a3.01 3.01 0 0 1 1.978.742l.146.135.723.723c.558.555 1.434.587 2.028.1l.115-.104.721-.72a3.01 3.01 0 0 1 1.924-.87l.198-.007h1.028a1.51 1.51 0 0 0 1.506-1.373l.006-.138v-1.029c0-.729.265-1.432.741-1.978l.135-.145.728-.727a1.51 1.51 0 0 0 .097-2.024l-.104-.115-.722-.722a3.01 3.01 0 0 1-.868-1.924l-.007-.198V5.056c0-.788-.604-1.436-1.374-1.506l-.138-.006h-1.028a3.01 3.01 0 0 1-1.978-.741l-.145-.135-.688-.69-.04-.037a1.51 1.51 0 0 0-2.023-.098zm4.055 10.2c.07.07.13.15.17.24a.93.93 0 0 1 .05.29c0 .101-.02.19-.05.28a.85.85 0 0 1-.17.25.75.75 0 0 1-1.06 0 .82.82 0 0 1-.16-.25.67.67 0 0 1-.06-.28c0-.1.02-.2.06-.29s.09-.17.16-.24c.28-.28.78-.28 1.06 0zm.004-5.143a.75.75 0 0 1 .073.977l-.073.084-5.14 5.14a.75.75 0 0 1-1.133-.977l.073-.084 5.14-5.14a.75.75 0 0 1 1.061 0zm-5.144.004a.75.75 0 0 1 .22.53c0 .1-.01.189-.05.28s-.1.17-.17.25c-.07.07-.15.119-.24.159a.72.72 0 0 1-.29.061.67.67 0 0 1-.28-.061.82.82 0 0 1-.25-.159c-.07-.08-.12-.16-.16-.25s-.06-.18-.06-.28.02-.2.06-.29.09-.18.16-.24c.29-.281.78-.281 1.06 0z"/></svg>