<svg xmlns="http://www.w3.org/2000/svg" width="24" height="27" viewBox="0 0 24 27"><path fill="#808191" d="M15.298.917c.05 0 .099.005.146.014l.204.001a.75.75 0 0 1 .45.15l.091.081 6.755 7.035a.75.75 0 0 1 .2.404l.009.115V21.12c0 3.096-2.453 5.661-5.504 5.779l-.219.004H6.779c-3.25 0-5.744-2.366-5.858-5.554l-.004-.229V6.654c0-3.068 2.558-5.602 5.641-5.718l.221-.004 8.373-.001c.047-.009.096-.014.146-.014zm-.751 1.515H6.779c-2.295 0-4.244 1.811-4.357 4.02l-.005.202V21.12c0 2.395 1.748 4.176 4.143 4.279l.219.005H17.43c2.25 0 4.111-1.824 4.218-4.077l.005-.206V9.731l-2.931-.002c-2.237-.005-4.06-1.765-4.169-3.975l-.005-.208-.001-3.114zm.512 11.287l.144.007a1.5 1.5 0 0 1 1.356 1.493h0l-.007.144a1.5 1.5 0 0 1-1.493 1.356h0-1.768l.001 1.768-.007.144a1.5 1.5 0 0 1-1.493 1.356h0l-.144-.007a1.5 1.5 0 0 1-1.356-1.493h0l-.001-1.768H8.524l-.144-.007a1.5 1.5 0 0 1-1.356-1.493h0l.007-.144a1.5 1.5 0 0 1 1.493-1.356h1.767l.001-1.766.007-.144a1.5 1.5 0 0 1 1.493-1.356h0l.144.007a1.5 1.5 0 0 1 1.356 1.493h0l-.001 1.766h-.749l-.001.75h.751l-.001-.75h1.768zm-1.768 2.25h-.751l.001.75h.749l.001-.75zm-2.251 0h-.749l-.001.75h.751l-.001-.75zm.751-1.5l-.007.102a.75.75 0 0 1-.743.648h0l.102.007a.75.75 0 0 1 .648.743h0l.007-.102a.75.75 0 0 1 .743-.648h0l-.102-.007a.75.75 0 0 1-.648-.743h0zm-.75-.75h-.751l.001.75h.749l.001-.75zM16.047 3.18l.001 2.366c0 1.48 1.197 2.68 2.677 2.683l2.169-.001-4.847-5.048z"/></svg>