<svg xmlns="http://www.w3.org/2000/svg" width="24" height="27" viewBox="0 0 24 27"><path fill="#808191" d="M15.299.917c.05 0 .099.005.146.014l.204.001a.75.75 0 0 1 .541.231h0l6.753 7.035a.75.75 0 0 1 .209.519h0v12.221c0 3.198-2.593 5.965-5.722 5.965h0H6.778c-3.3 0-5.862-2.634-5.862-5.965h0V6.654C.916 3.513 3.598.932 6.778.932l8.375-.001c.047-.009.096-.014.146-.014zm-.751 1.515h-7.77c-2.365 0-4.362 1.922-4.362 4.222h0v14.284c0 2.511 1.9 4.465 4.362 4.465H17.43c2.278 0 4.222-2.074 4.222-4.465h0l-.001-11.208-2.93-.002c-2.236-.005-4.059-1.765-4.167-3.975l-.005-.208-.001-3.114zm.497 15.562a.75.75 0 0 1 .102 1.493l-.102.007H7.849a.75.75 0 0 1-.102-1.493l.102-.007h7.196zm-2.721-6.603a.75.75 0 0 1 .102 1.493l-.102.007H7.849a.75.75 0 0 1-.102-1.493l.102-.007h4.475zm3.725-8.209l.001 2.364c0 1.48 1.197 2.68 2.676 2.683l2.168-.001-4.844-5.046z"/></svg>