<svg xmlns="http://www.w3.org/2000/svg" width="22" height="22" viewBox="0 0 22 22"><path fill="#808191" d="M6.714 12.016a3.21 3.21 0 0 1 3.199 3.221h0v3.293a3.21 3.21 0 0 1-3.199 3.22h0-3.266A3.21 3.21 0 0 1 .25 18.53h0v-3.293a3.21 3.21 0 0 1 3.199-3.221h0zm11.838 0a3.21 3.21 0 0 1 3.198 3.221h0v3.293a3.21 3.21 0 0 1-3.198 3.22h0-3.267a3.21 3.21 0 0 1-3.199-3.22h0v-3.293a3.21 3.21 0 0 1 3.199-3.221h0zm-11.838 1.5H3.449a1.71 1.71 0 0 0-1.699 1.721h0v3.293a1.71 1.71 0 0 0 1.699 1.72h3.266a1.71 1.71 0 0 0 1.699-1.72h0v-3.293a1.71 1.71 0 0 0-1.699-1.721h0zm11.838 0h-3.267a1.71 1.71 0 0 0-1.699 1.721h0v3.293a1.71 1.71 0 0 0 1.699 1.72h3.267a1.71 1.71 0 0 0 1.698-1.72h0v-3.293a1.71 1.71 0 0 0-1.698-1.721h0zm0-13.266a3.21 3.21 0 0 1 3.198 3.22h0v3.294c0 1.776-1.431 3.22-3.198 3.22h0-3.267c-1.768 0-3.199-1.444-3.199-3.22h0V3.47A3.21 3.21 0 0 1 15.286.25h0zM6.714.25a3.21 3.21 0 0 1 3.199 3.22h0v3.294c0 1.776-1.431 3.22-3.199 3.22h0-3.266C1.681 9.984.25 8.54.25 6.764h0V3.47A3.21 3.21 0 0 1 3.449.25h0zm11.838 1.5h-3.267a1.71 1.71 0 0 0-1.699 1.72h0v3.294a1.71 1.71 0 0 0 1.699 1.72h3.267a1.71 1.71 0 0 0 1.698-1.72h0V3.47a1.71 1.71 0 0 0-1.698-1.72h0zm-11.838 0H3.449A1.71 1.71 0 0 0 1.75 3.47h0v3.294a1.71 1.71 0 0 0 1.699 1.72h3.266a1.71 1.71 0 0 0 1.699-1.72h0V3.47a1.71 1.71 0 0 0-1.699-1.72h0z"/></svg>