<svg width="15" height="14" viewBox="0 0 15 14" fill="none" xmlns="http://www.w3.org/2000/svg">
<path fill-rule="evenodd" clip-rule="evenodd" d="M10.3897 0.333534H4.61041C2.34536 0.333534 0.83374 1.95526 0.83374 4.27753V9.72287C0.83374 12.0473 2.34132 13.6669 4.61041 13.6669H10.3891C12.6588 13.6669 14.1671 12.0473 14.1671 9.72287V4.27753C14.1671 1.9532 12.6589 0.333534 10.3897 0.333534ZM4.61041 1.33353H10.3897C12.0901 1.33353 13.1671 2.49018 13.1671 4.27753V9.72287C13.1671 11.5103 12.09 12.6669 10.3891 12.6669H4.61041C2.91025 12.6669 1.83374 11.5104 1.83374 9.72287V4.27753C1.83374 2.49245 2.91397 1.33353 4.61041 1.33353ZM7.49993 3.9696C7.77608 3.9696 7.99993 4.19346 7.99993 4.4696C7.99993 4.72273 7.81183 4.93193 7.56778 4.96504L7.49327 4.9696C7.21712 4.9696 6.99327 4.74574 6.99327 4.4696C6.99327 4.21647 7.18137 4.00727 7.42542 3.97416L7.49993 3.9696ZM7.49327 6.08478C7.7464 6.08478 7.95559 6.27289 7.9887 6.51694L7.99327 6.58478V9.53078C7.99327 9.80692 7.76941 10.0308 7.49327 10.0308C7.24014 10.0308 7.03094 9.84268 6.99783 9.59863L6.99327 9.53078V6.58478C6.99327 6.30864 7.21712 6.08478 7.49327 6.08478Z" fill="#11142D"/>
</svg>
