<svg xmlns="http://www.w3.org/2000/svg" width="20" height="22" viewBox="0 0 20 22"><path fill="#808191" d="M12.837 19.268a.75.75 0 0 1 .114 1.055c-.192.239-.414.452-.649.627a3.84 3.84 0 0 1-2.798.774 3.81 3.81 0 0 1-2.536-1.404.75.75 0 0 1 1.173-.935 2.31 2.31 0 0 0 1.538.849c.61.072 1.224-.098 1.715-.479a2.14 2.14 0 0 0 .388-.374.75.75 0 0 1 1.055-.114zM10.039.25c3.664 0 7.027 2.626 7.364 6.112l.01.131.014.264.006.301v.723l.005.332.01.211.048.201c.153.56.422 1.084.791 1.539h0l.164.191.067.085a4.28 4.28 0 0 1 .73 2.23h0l-.001.434c-.031.968-.391 1.904-1.05 2.683-.873.916-2.057 1.485-3.315 1.599a45.8 45.8 0 0 1-9.766.001c-1.267-.12-2.447-.688-3.359-1.639-.672-.81-1.03-1.829-1.007-2.859h0l.001-.256a4.35 4.35 0 0 1 .726-2.197h0l.073-.093a4.12 4.12 0 0 0 1.01-1.957l-.016.065.003-.563.013-.652.046-.778C2.933 2.878 6.295.25 9.961.25h0zm0 1.5h-.078c-2.936 0-5.612 2.091-5.86 4.742l-.031.454-.017.502-.007.988-.016.152a5.62 5.62 0 0 1-1.377 2.67l.044-.051.009-.01-.096.157c-.18.32-.295.667-.341 1.01h0l-.019.205v.235c-.015.685.219 1.353.625 1.844a3.81 3.81 0 0 0 2.392 1.145 44.36 44.36 0 0 0 9.467-.001c.909-.083 1.755-.489 2.347-1.108a2.83 2.83 0 0 0 .667-1.906h0l.001-.176a2.76 2.76 0 0 0-.473-1.422l.017.027-.15-.174c-.517-.631-.893-1.362-1.102-2.147h0l-.071-.296-.014-.1-.007-.107-.013-.324-.003-.972-.002-.172-.012-.286-.01-.131c-.257-2.658-2.935-4.749-5.87-4.749h0z"/></svg>