<svg xmlns="http://www.w3.org/2000/svg" width="16" height="14" viewBox="0 0 16 14"><path d="M2.474 9.553a.5.5 0 0 1 .257.587l-.033.084-1.75 3.5a.5.5 0 0 1-.927-.363l.033-.084 1.75-3.5a.5.5 0 0 1 .671-.224zM15.748.066a.5.5 0 0 1 .224.6l-.038.082-4 7a.5.5 0 0 1-.628.213l-.083-.045-5.53-3.686-1.555 3.111 6.307 4.506 4.701-4.701a.5.5 0 0 1 .638-.058l.069.058a.5.5 0 0 1 .058.638l-.058.069-5 5a.5.5 0 0 1-.566.099l-.078-.046L3.341 8H.5a.5.5 0 0 1-.492-.41L0 7.5a.5.5 0 0 1 .41-.492L.5 7h2.69l1.863-3.724a.5.5 0 0 1 .647-.235l.077.042 5.554 3.702L15.066.252a.5.5 0 0 1 .682-.186z"/></svg>