<svg xmlns="http://www.w3.org/2000/svg" width="20" height="22"  viewBox="0 0 20 22"><path fill="#808191" d="M10.797.528c.72 0 1.409.291 1.911.807s.773 1.213.751 1.864h0l.009.153c.018.151.067.296.146.43.155.264.409.456.705.533s.612.033.91-.142h0l.166-.086c1.249-.587 2.746-.12 3.439 1.081h0l.622 1.08a.75.75 0 0 1 .043.088h0l.058.116a2.66 2.66 0 0 1-.897 3.32h0l-.261.164a1.13 1.13 0 0 0-.336.369c-.155.265-.197.582-.118.878s.273.55.568.72h0l.169.109c.512.358.882.886 1.043 1.491a2.66 2.66 0 0 1-.276 2.028h0l-.67 1.115-.101.157c-.787 1.131-2.314 1.477-3.48.804h0l-.138-.071c-.144-.064-.299-.1-.441-.104-.308-.002-.604.12-.821.338a1.18 1.18 0 0 0-.339.857h0l-.008.178c-.113 1.377-1.265 2.444-2.654 2.444h0-1.254c-1.471 0-2.663-1.192-2.662-2.616h0l-.009-.153c-.018-.151-.067-.296-.15-.437-.152-.265-.403-.458-.698-.537a1.18 1.18 0 0 0-.913.139h0l-.181.09c-.571.257-1.216.304-1.82.133-.681-.194-1.258-.651-1.594-1.258h0L.87 15.494l-.086-.166c-.589-1.244-.127-2.739 1.045-3.416h0l.107-.067c.313-.217.501-.574.501-.956 0-.416-.222-.799-.609-1.024h0l-.157-.101C.538 8.977.193 7.45.894 6.234h0l.659-1.083C2.286 3.879 3.91 3.44 5.16 4.156h0l.135.072c.138.063.288.097.432.098.636 0 1.154-.511 1.164-1.165h0l.009-.201c.052-.622.322-1.207.764-1.651.498-.5 1.175-.782 1.881-.782h0zm0 1.5H9.544c-.307 0-.601.122-.818.34a1.14 1.14 0 0 0-.33.685h0l-.014.316c-.105 1.377-1.256 2.458-2.663 2.458-.363-.004-.72-.084-1.085-.253h0l-.195-.103c-.556-.319-1.266-.127-1.595.444h0l-.659 1.083c-.302.524-.151 1.192.317 1.518h0l.265.168c.729.493 1.171 1.318 1.171 2.206 0 .875-.43 1.693-1.173 2.207h0l-.158.099c-.521.301-.721.952-.48 1.464h0l.057.11.639 1.102c.15.271.402.47.699.555a1.15 1.15 0 0 0 .765-.044h0l.11-.054c.609-.356 1.335-.453 2.017-.271s1.262.629 1.606 1.231c.185.312.302.659.348 1.059h0l.02.366c.063.583.557 1.036 1.156 1.036h1.254c.606 0 1.11-.466 1.157-1.037h0l.006-.113c-.003-.708.277-1.388.777-1.889s1.181-.781 1.906-.777a2.73 2.73 0 0 1 1.063.25h0l.321.164c.503.221 1.101.06 1.403-.375h0l.074-.115.654-1.09c.155-.265.197-.581.118-.878a1.14 1.14 0 0 0-.426-.63h0l-.276-.175c-.528-.357-.913-.894-1.078-1.515a2.65 2.65 0 0 1 .268-2.015c.193-.337.459-.627.805-.868h0l.163-.103c.52-.304.721-.954.48-1.469h0l-.072-.138-.013-.029-.594-1.031c-.281-.487-.865-.698-1.361-.531h0l-.113.045-.105.053c-.607.358-1.332.459-2.014.282a2.65 2.65 0 0 1-1.62-1.223c-.185-.312-.302-.659-.348-1.058h0l-.013-.261c.009-.314-.109-.619-.329-.844s-.52-.352-.835-.352h0zm-.622 5.475c1.87 0 3.386 1.516 3.386 3.386s-1.516 3.386-3.386 3.386-3.386-1.516-3.386-3.386 1.516-3.386 3.386-3.386zm0 1.5c-1.042 0-1.886.844-1.886 1.886s.844 1.886 1.886 1.886 1.886-.844 1.886-1.886-.844-1.886-1.886-1.886z"/></svg>