<svg width="17" height="16" viewBox="0 0 17 16" fill="none" xmlns="http://www.w3.org/2000/svg">
<path d="M15.6441 5.439L11.3271 4.811L9.40011 0.899996C9.21376 0.579401 8.87093 0.382141 8.50011 0.382141C8.12929 0.382141 7.78646 0.579401 7.60011 0.899996L5.67311 4.812L1.35611 5.439C0.97898 5.49308 0.665352 5.75677 0.547296 6.119C0.429241 6.48123 0.527272 6.87908 0.800108 7.145L3.92311 10.19L3.18611 14.49C3.12183 14.8651 3.27609 15.2443 3.58404 15.4679C3.89198 15.6916 4.30022 15.7211 4.63711 15.544L8.50011 13.513L12.3611 15.542C12.698 15.7191 13.1062 15.6896 13.4142 15.466C13.7221 15.2423 13.8764 14.8631 13.8121 14.488L13.0751 10.188L16.2001 7.145C16.4722 6.87928 16.5701 6.48219 16.4526 6.12046C16.335 5.75873 16.0225 5.49499 15.6461 5.44L15.6441 5.439Z" fill="#11142D"/>
</svg>
