<svg xmlns="http://www.w3.org/2000/svg" width="16" height="16" viewBox="0 0 16 16">
  <path fill="#808191" d="M5.349,5.106 L0.428099783,5.82119665 L0.344065893,5.84052898 C-0.00306354812,5.95169687 -0.124570033,6.40545995 0.151011124,6.67405972 L3.713,10.145 L2.87219024,15.0485101 L2.86466872,15.1287865 C2.85905121,15.4962474 3.25534102,15.7555565 3.59768824,15.5755564 L8,13.26 L12.4023118,15.5755564 L12.4763314,15.6075244 C12.8240589,15.7264556 13.1931684,15.4297317 13.1278098,15.0485101 L12.286,10.145 L15.8489889,6.67405972 L15.9056137,6.60902846 C16.121119,6.31506486 15.9527263,5.87653475 15.5719002,5.82119665 L10.65,5.106 L8.44835336,0.6456914 C8.26493543,0.2741082 7.73506457,0.2741082 7.55164664,0.6456914 L5.349,5.106 Z M8,1.997 L9.86964664,5.7843126 L9.92113364,5.86714553 C9.99967468,5.96963303 10.1158253,6.03887309 10.2460998,6.05780335 L14.425,6.664 L11.4010111,9.61294028 L11.3381313,9.68750115 C11.2649157,9.79386636 11.2349441,9.92573339 11.2571902,10.0554899 L11.971,14.219 L8.23268824,12.2534436 L8.14233571,12.2166797 C8.01853784,12.1799158 7.88384892,12.1921704 7.76731176,12.2534436 L4.028,14.219 L4.74280976,10.0554899 L4.74984375,9.95820822 C4.74654189,9.82912225 4.69326575,9.70482881 4.59898888,9.61294028 L1.574,6.664 L5.75390022,6.05780335 C5.91674326,6.03414052 6.05751792,5.93186865 6.13035336,5.7843126 L8,1.997 Z"/>
</svg>
