<svg xmlns="http://www.w3.org/2000/svg" width="26" height="24" viewBox="0 0 26 24"><path fill="#808191" d="M19.453 3.979a.75.75 0 0 1 .743.648l.007.102v16.34l4.156-4.174a.75.75 0 0 1 1.136.974l-.072.084-5.481 5.503-.032.026.076-.066c-.039.039-.081.073-.126.102l-.034.02a.54.54 0 0 1-.054.029l-.037.015a.55.55 0 0 1-.06.022l-.037.01c-.02.006-.04.01-.061.013l-.037.004a.58.58 0 0 1-.071.005h-.03l-.073-.005.088.004c-.041 0-.08-.003-.119-.009a.57.57 0 0 1-.067-.013l-.033-.01a.56.56 0 0 1-.062-.021l-.04-.018a.48.48 0 0 1-.047-.023l-.049-.031a.37.37 0 0 1-.032-.021l-.008-.007-.019-.015-.058-.051-5.437-5.462a.75.75 0 0 1 .979-1.131l.084.073 4.155 4.175V4.729a.75.75 0 0 1 .75-.75zM6.215.361L6.23.36l.073.005-.088-.004c.041 0 .081.003.12.01A.56.56 0 0 1 6.4.383l.034.01c.021.006.043.013.064.022l.034.015c.017.007.034.016.052.026l.045.029a.39.39 0 0 1 .034.023l.008.007.032.026.044.04 5.437 5.462a.75.75 0 0 1-.979 1.131l-.084-.073-4.156-4.174v16.341a.75.75 0 0 1-1.493.102l-.007-.102V2.925L1.31 7.101a.75.75 0 0 1-.976.075l-.084-.072a.75.75 0 0 1-.075-.976l.072-.084L5.684.581l.044-.04.032-.026-.076.066c.037-.037.076-.069.118-.097l.045-.027a.52.52 0 0 1 .052-.027l.033-.014a.57.57 0 0 1 .064-.024l.034-.009a.57.57 0 0 1 .065-.014l.032-.004A.59.59 0 0 1 6.201.36z"/></svg>