<svg xmlns="http://www.w3.org/2000/svg" width="24" height="23" viewBox="0 0 24 23"><path fill="#808191" d="M12 5a7 7 0 0 1 7 7c0 2.716-1.564 5.132-3.932 6.286h0l-.068.031V22a1 1 0 0 1-.883.993h0L14 23h-4a1 1 0 0 1-1-1h0v-3.682l-.068-.032c-2.29-1.116-3.827-3.411-3.927-6.016h0L5 12a7 7 0 0 1 7-7zm0 2a5 5 0 0 0-5 5c0 2.133 1.351 4.007 3.334 4.708a1 1 0 0 1 .666.943h0V21h2v-3.349a1 1 0 0 1 .551-.893h0l.116-.049C15.649 16.007 17 14.133 17 12a5 5 0 0 0-5-5zm-9 4a1 1 0 0 1 .117 1.993L3 13H1a1 1 0 0 1-.117-1.993L1 11h2zm20 0a1 1 0 0 1 .117 1.993L23 13h-2a1 1 0 0 1-.117-1.993L21 11h2zM4.835 3.432l.094.083 1.414 1.414a1 1 0 0 1-1.32 1.497l-.094-.083-1.414-1.414a1 1 0 0 1 1.32-1.497zm15.65.083a1 1 0 0 1 .083 1.32l-.083.094-1.414 1.414a1 1 0 0 1-1.497-1.32l.083-.094 1.414-1.414a1 1 0 0 1 1.414 0zM12 0a1 1 0 0 1 .993.883L13 1v2a1 1 0 0 1-1.993.117L11 3V1a1 1 0 0 1 1-1z"/></svg>