<svg xmlns="http://www.w3.org/2000/svg" width="24" height="24" viewBox="0 0 24 24">
  <path fill="#808191" d="M8,2.29995 C8.4,2.19995 8.7,2.29995 9,2.59995 C9.3,2.89995 9.4,3.29995 9.3,3.59995 C9.1,4.39995 9,5.19995 9,5.99995 C9,11 13,15 18,15 C18.8,15 19.6,14.9 20.4,14.7 C20.7,14.6 21.1,14.7 21.3,14.9 C21.6,15.2 21.7,15.6 21.6,15.9 C20.3,20.7 15.9,24 11,24 C4.9,24 0,19.1 0,13 C0,8.09995 3.3,3.69995 8,2.29995 Z M21,6 C21.6,6 22,6.4 22,7 L22,7 L22,8 L23,8 C23.6,8 24,8.4 24,9 C24,9.6 23.6,10 23,10 L23,10 L22,10 L22,11 C22,11.6 21.6,12 21,12 C20.4,12 20,11.6 20,11 L20,11 L20,10 L19,10 C18.4,10 18,9.6 18,9 C18,8.4 18.4,8 19,8 L19,8 L20,8 L20,7 C20,6.4 20.4,6 21,6 Z M15,0 C15.6,0 16,0.4 16,1 L16,1 L16,2 L17,2 C17.6,2 18,2.4 18,3 C18,3.6 17.6,4 17,4 L17,4 L16,4 L16,5 C16,5.6 15.6,6 15,6 C14.4,6 14,5.6 14,5 L14,5 L14,4 L13,4 C12.4,4 12,3.6 12,3 C12,2.4 12.4,2 13,2 L13,2 L14,2 L14,1 C14,0.4 14.4,0 15,0 Z"/>
</svg>
