<svg xmlns="http://www.w3.org/2000/svg" width="15" height="15" viewBox="0 0 15 15"><path fill="#1b1d21" d="M7.5 0a7.5 7.5 0 1 1 0 15 7.5 7.5 0 1 1 0-15zm0 1a6.5 6.5 0 1 0 0 13 6.5 6.5 0 1 0 0-13zm0 10a.5.5 0 0 1 .492.41L8 11.5v1a.5.5 0 0 1-.992.09L7 12.5v-1a.5.5 0 0 1 .5-.5zM4.784 4.089l.069.058L7.707 7H12.5a.5.5 0 0 1 .492.41L13 7.5a.5.5 0 0 1-.41.492L12.5 8h-5a.5.5 0 0 1-.294-.095l-.06-.051-3-3a.5.5 0 0 1 .638-.765zM3.5 7a.5.5 0 0 1 .09.992L3.5 8h-1a.5.5 0 0 1-.09-.992L2.5 7h1zm4-5a.5.5 0 0 1 .492.41L8 2.5v1a.5.5 0 0 1-.992.09L7 3.5v-1a.5.5 0 0 1 .5-.5z"/></svg>