<svg width="17" height="16" viewBox="0 0 17 16" fill="none" xmlns="http://www.w3.org/2000/svg">
<path d="M10 3.41287e-06C6.25736 0.00408606 3.17843 2.94829 3.007 6.687L1.168 9.445C1.0068 9.68408 0.956649 9.9811 1.03041 10.2598C1.10417 10.5386 1.29466 10.7719 1.553 10.9L3 11.618V13.5C3 14.8807 4.11929 16 5.5 16H8C9.65685 16 11 14.6569 11 13V8.723C10.2161 8.2704 9.83386 7.34768 10.0681 6.47331C10.3024 5.59895 11.0948 4.99095 12 4.99095C12.9052 4.99095 13.6976 5.59895 13.9318 6.47331C14.1661 7.34768 13.7839 8.2704 13 8.723V13C12.9963 14.0855 12.6358 15.1396 11.974 16H14C14.5523 16 15 15.5523 15 15V11.889C16.9724 9.8775 17.5451 6.87889 16.453 4.28203C15.3609 1.68517 12.8172 -0.00277014 10 3.41287e-06Z" fill="#1B1D21"/>
</svg>
