<svg width="15" height="24" viewBox="0 0 15 24" fill="none" xmlns="http://www.w3.org/2000/svg">
<path fill-rule="evenodd" clip-rule="evenodd" d="M11.055 10.227C11.639 9.468 12 8.53 12 7.5C12 5.19 10.244 3.303 8 3.051V0H6V3H4V0H2V3H1C0.448 3 0 3.447 0 4V20C0 20.553 0.448 21 1 21H2V24H4V21H6V24H8V21H9.5C12.533 21 15 18.532 15 15.5C15 13.008 13.332 10.9 11.055 10.227ZM7.5 5C8.878 5 10 6.121 10 7.5C10 8.879 8.878 10 7.5 10H2V5H7.5ZM2 19H9.5C11.43 19 13 17.43 13 15.5C13 13.57 11.43 12 9.5 12H2V19Z" fill="white"/>
</svg>
