<svg width="25" height="25" viewBox="0 0 25 25" fill="none" xmlns="http://www.w3.org/2000/svg">
<path d="M17.9746 16.002C15.0236 16.002 12.5716 15.363 10.9746 14.29C10.9746 15.036 10.9746 15.528 10.9746 16.002C10.9746 17.659 14.1086 19.002 17.9746 19.002C21.8406 19.002 24.9746 17.659 24.9746 16.002C24.9746 15.528 24.9746 15.036 24.9746 14.29C23.3776 15.363 20.9256 16.002 17.9746 16.002Z" fill="white"/>
<path d="M17.9746 21.004C15.0236 21.004 12.5716 20.365 10.9746 19.292C10.9746 20.038 10.9746 20.53 10.9746 21.004C10.9746 22.661 14.1086 24.004 17.9746 24.004C21.8406 24.004 24.9746 22.661 24.9746 21.004C24.9746 20.53 24.9746 20.038 24.9746 19.292C23.3776 20.365 20.9256 21.004 17.9746 21.004Z" fill="white"/>
<ellipse cx="17.9746" cy="11" rx="7" ry="3" fill="white"/>
<ellipse cx="7.97456" cy="3" rx="7" ry="3" fill="white"/>
<path d="M8.97456 17.979C8.64756 17.995 8.31556 18.006 7.97456 18.006C5.02356 18.006 2.57156 17.367 0.974564 16.294C0.974564 17.04 0.974564 17.532 0.974564 18.006C0.974564 19.663 4.10856 21.006 7.97456 21.006C8.31456 21.006 8.64756 20.992 8.97456 20.972V17.979Z" fill="white"/>
<path d="M8.97456 12.977C8.64756 12.993 8.31556 13.004 7.97456 13.004C5.02356 13.004 2.57156 12.365 0.974564 11.292C0.974564 12.038 0.974564 12.53 0.974564 13.004C0.974564 14.661 4.10856 16.004 7.97456 16.004C8.31456 16.004 8.64756 15.99 8.97456 15.97V12.977Z" fill="white"/>
<path d="M10.8946 7.76798C9.99256 7.91798 9.01656 8.00198 7.97456 8.00198C5.02356 8.00198 2.57156 7.36298 0.974564 6.28998C0.974564 7.03598 0.974564 7.52798 0.974564 8.00198C0.974564 9.65898 4.10856 11.002 7.97456 11.002C8.31556 11.002 8.64856 10.988 8.97756 10.968C8.98956 9.70498 9.68456 8.60798 10.8946 7.76798Z" fill="white"/>
</svg>
