<svg width="135" height="40" viewBox="0 0 135 40" fill="none" xmlns="http://www.w3.org/2000/svg">
<path d="M129.993 39.8344H5.00166C2.24503 39.8344 0 37.5894 0 34.8551V4.9793C0 2.2351 2.24503 0 5.00166 0H129.993C132.748 0 134.995 2.2351 134.995 4.9793V34.8551C134.995 37.5894 132.748 39.8344 129.993 39.8344Z" fill="#1B1D21"/>
<path fill-rule="evenodd" clip-rule="evenodd" d="M129.993 0.797185C132.305 0.797185 134.198 2.67715 134.198 4.9793V34.8551C134.198 37.1573 132.318 39.0373 129.993 39.0373H5.00166C2.68957 39.0373 0.797185 37.1573 0.797185 34.8551V4.9793C0.797185 2.67715 2.67715 0.797185 5.00166 0.797185H129.993ZM129.993 0H5.00166C2.24503 0 0 2.24503 0 4.9793V34.8551C0 37.5993 2.24503 39.8344 5.00166 39.8344H129.993C132.748 39.8344 134.995 37.5993 134.995 34.8551V4.9793C134.995 2.24503 132.748 0 129.993 0Z" fill="#A6A6A6"/>
<path fill-rule="evenodd" clip-rule="evenodd" d="M68.8539 12.2409C69.4548 12.8618 70.2148 13.1771 71.1163 13.1771C72.0178 13.1771 72.7777 12.8642 73.3762 12.2384C73.9722 11.6324 74.2802 10.8651 74.2901 9.95612C74.2901 9.06953 73.9822 8.30215 73.3762 7.67384C72.7653 7.05298 72.0053 6.73758 71.1138 6.73758C70.2123 6.73758 69.4524 7.05298 68.8539 7.67384C68.2479 8.28228 67.9399 9.04967 67.9399 9.95612C67.925 10.8055 68.2578 11.6374 68.8539 12.2409ZM42.0202 12.2533C42.6461 12.8667 43.411 13.1771 44.2926 13.1771C45.2115 13.1771 45.9714 12.8692 46.5525 12.2632C47.0641 11.7517 47.3224 11.0588 47.3224 10.202C47.3224 10.053 47.3 9.89155 47.2777 9.7351L47.2653 9.65066H44.1808V10.5795H46.339C46.2843 11.019 46.1303 11.3667 45.882 11.6151C45.4623 12.0372 44.9234 12.2508 44.2827 12.2508C43.6817 12.2508 43.1577 12.0372 42.7255 11.6151C42.2909 11.1904 42.0699 10.6341 42.0699 9.96109C42.0699 9.28808 42.2909 8.73178 42.7255 8.30712C43.1577 7.88493 43.6817 7.67135 44.2827 7.67135C44.9557 7.67135 45.4648 7.89238 45.8447 8.34437L45.9143 8.42632L46.5873 7.76573L46.5277 7.69371C46.2868 7.40811 45.9615 7.17467 45.5616 7.00331C45.1543 6.82698 44.7297 6.74006 44.2926 6.74006C43.3986 6.74006 42.6337 7.05049 42.0202 7.6639C41.3994 8.27483 41.084 9.04718 41.084 9.95861C41.084 10.87 41.3994 11.6424 42.0202 12.2533ZM79.9573 13.0455H79.0062L76.0931 8.3841L76.1179 9.22351V13.043H75.1668V6.87169H76.252L76.2818 6.91887L79.0211 11.3096L78.9962 10.4727V6.87169H79.9573V13.0455ZM63.0053 13.0455H63.9664V7.80049H65.6378V6.87169H61.334V7.80049H63.0053V13.0455ZM60.5492 13.0455H59.5881V6.87169H60.5492V13.0455ZM54.1866 13.0455H55.1477V7.80049H56.8191V6.87169H52.5153V7.80049H54.1866V13.0455ZM51.9068 13.0356H48.2214V6.87169H51.9068V7.80049H49.185V9.4942H51.6411V10.4131H49.185V12.1068H51.9068V13.0356ZM71.1163 12.2483C70.5103 12.2483 69.9888 12.0323 69.5592 11.6026C69.1394 11.1829 68.9284 10.6267 68.9284 9.95861C68.9284 9.29056 69.1419 8.73675 69.5641 8.31457C69.9863 7.87996 70.4954 7.66887 71.1188 7.66887C71.7222 7.66887 72.2462 7.88493 72.6759 8.31457C73.0956 8.73427 73.3092 9.29056 73.3092 9.95861C73.3092 10.6267 73.0956 11.1805 72.6734 11.6026C72.2487 12.0372 71.7396 12.2483 71.1163 12.2483Z" fill="white"/>
<path fill-rule="evenodd" clip-rule="evenodd" d="M67.8498 21.6656C65.503 21.6656 63.6007 23.4462 63.6007 25.9023C63.6007 28.3361 65.5154 30.1391 67.8498 30.1391C70.1967 30.1391 72.099 28.346 72.099 25.9023C72.099 23.4462 70.1967 21.6656 67.8498 21.6656ZM67.8498 28.4603C66.5659 28.4603 65.4608 27.3973 65.4608 25.8924C65.4608 24.3651 66.5684 23.3245 67.8498 23.3245C69.1338 23.3245 70.2389 24.3651 70.2389 25.8924C70.2414 27.4073 69.1338 28.4603 67.8498 28.4603ZM58.5791 21.6656C56.2323 21.6656 54.33 23.4462 54.33 25.9023C54.33 28.3361 56.2447 30.1391 58.5791 30.1391C60.926 30.1391 62.8283 28.346 62.8283 25.9023C62.8283 23.4462 60.9235 21.6656 58.5791 21.6656ZM58.5791 28.4603C57.2952 28.4603 56.1901 27.3973 56.1901 25.8924C56.1901 24.3651 57.2977 23.3245 58.5791 23.3245C59.8631 23.3245 60.9682 24.3651 60.9682 25.8924C60.9682 27.4073 59.8631 28.4603 58.5791 28.4603ZM47.5477 22.9594V24.7525H51.8515C51.7199 25.7583 51.3871 26.5008 50.878 27.0099C50.2472 27.6407 49.2737 28.3262 47.5576 28.3262C44.9127 28.3262 42.844 26.1904 42.844 23.5455C42.844 20.9007 44.9127 18.7649 47.5576 18.7649C48.9856 18.7649 50.0262 19.3286 50.7985 20.0488L52.07 18.7773C50.9972 17.7492 49.5692 16.9619 47.5675 16.9619C43.9392 16.9619 40.8945 19.9172 40.8945 23.5356C40.8945 27.1639 43.9367 30.1093 47.5675 30.1093C49.527 30.1093 50.9972 29.4685 52.1594 28.2616C53.344 27.077 53.719 25.4056 53.719 24.0571C53.719 23.6374 53.6867 23.2599 53.6197 22.9396H47.5452C47.5477 22.9371 47.5477 22.9594 47.5477 22.9594ZM92.6694 24.3551C92.3142 23.404 91.2414 21.6556 89.0411 21.6556C86.8606 21.6556 85.0477 23.3717 85.0477 25.8924C85.0477 28.2715 86.8407 30.1291 89.2521 30.1291C91.1892 30.1291 92.3167 28.9445 92.7811 28.2492L91.3432 27.2856C90.8664 27.9934 90.2033 28.4578 89.2621 28.4578C88.3109 28.4578 87.6454 28.0257 87.2033 27.1738L92.868 24.827C92.868 24.8295 92.6694 24.3551 92.6694 24.3551ZM86.8929 25.7707C86.8482 24.1341 88.1644 23.3021 89.1056 23.3021C89.8482 23.3021 90.4665 23.6672 90.6776 24.1987L86.8929 25.7707ZM82.2911 29.8758H84.1512V17.4288H82.2911V29.8758ZM79.2364 22.6068H79.1694C78.7497 22.1076 77.9525 21.6556 76.9343 21.6556C74.8209 21.6556 72.8738 23.5157 72.8738 25.9048C72.8738 28.2839 74.8109 30.1217 76.9343 30.1217C77.9401 30.1217 78.7497 29.6672 79.1694 29.1581H79.2364V29.7666C79.2364 31.3833 78.3722 32.255 76.979 32.255C75.8391 32.255 75.1313 31.4354 74.8432 30.75L73.2265 31.4255C73.6909 32.543 74.9301 33.9263 76.9765 33.9263C79.1569 33.9263 81.0046 32.6424 81.0046 29.5108V21.9089H79.2464V22.6068C79.2488 22.6068 79.2364 22.6068 79.2364 22.6068ZM77.1007 28.4603C75.8167 28.4603 74.7439 27.3874 74.7439 25.9048C74.7439 24.4098 75.8167 23.327 77.1007 23.327C78.3722 23.327 79.3581 24.4222 79.3581 25.9048C79.3705 27.3874 78.3747 28.4603 77.1007 28.4603ZM101.379 17.4288H96.931V29.8758H98.7911V25.1622H101.381C103.44 25.1622 105.464 23.6697 105.464 21.3005C105.464 18.9313 103.448 17.4288 101.379 17.4288ZM101.433 23.4238H98.7886V19.1523H101.433C102.827 19.1523 103.614 20.3021 103.614 21.2881C103.614 22.2641 102.817 23.4238 101.433 23.4238ZM112.919 21.6432C111.568 21.6432 110.175 22.2417 109.599 23.5455L111.248 24.231C111.603 23.5455 112.254 23.3121 112.942 23.3121C113.905 23.3121 114.879 23.8882 114.901 24.9164V25.048C114.568 24.8593 113.838 24.5712 112.964 24.5712C111.183 24.5712 109.378 25.5447 109.378 27.37C109.378 29.0414 110.838 30.1142 112.465 30.1142C113.714 30.1142 114.402 29.5505 114.832 28.8973H114.899V29.8609H116.692V25.0927C116.692 22.8725 115.043 21.6432 112.919 21.6432ZM112.686 28.4603C112.077 28.4603 111.226 28.1622 111.226 27.3973C111.226 26.4338 112.289 26.0687 113.195 26.0687C114.015 26.0687 114.402 26.245 114.889 26.4884C114.755 27.606 113.811 28.4503 112.686 28.4603ZM123.233 21.9089L121.097 27.3079H121.03L118.818 21.9089H116.816L120.136 29.4561L118.244 33.6507H120.181L125.289 21.9089H123.233ZM106.49 29.8758H108.35V17.4288H106.49V29.8758Z" fill="white"/>
<path fill-rule="evenodd" clip-rule="evenodd" d="M10.3905 7.50248C10.1024 7.81291 9.93604 8.28725 9.93604 8.90811V30.9288C9.93604 31.5497 10.1024 32.024 10.4004 32.322L10.4774 32.3891L22.8152 20.0513V19.7757L10.4675 7.43542L10.3905 7.50248Z" fill="url(#paint0_linear)"/>
<path fill-rule="evenodd" clip-rule="evenodd" d="M26.9207 24.1763L22.8057 20.0613V19.7732L26.9207 15.6581L27.0101 15.7127L31.8777 18.4793C33.2709 19.2641 33.2709 20.5604 31.8777 21.3551L27.0101 24.1217L26.9207 24.1763Z" fill="url(#paint1_linear)"/>
<path fill-rule="evenodd" clip-rule="evenodd" d="M27.0098 24.1217L22.8054 19.9172L10.3906 32.3319C10.8451 32.8187 11.6075 32.8733 12.4593 32.399L27.0098 24.1217Z" fill="url(#paint2_linear)"/>
<path fill-rule="evenodd" clip-rule="evenodd" d="M27.0098 15.7128L12.4593 7.44786C11.6075 6.9611 10.8426 7.02816 10.3906 7.51491L22.8054 19.9172L27.0098 15.7128Z" fill="url(#paint3_linear)"/>
<path opacity="0.2" d="M26.9207 24.0323L12.4696 32.2426C11.6625 32.707 10.9423 32.6747 10.4779 32.2525L10.4009 32.3295L10.4779 32.3965C10.9423 32.8162 11.6625 32.851 12.4696 32.3866L27.0201 24.1217L26.9207 24.0323Z" fill="#1B1D21"/>
<path opacity="0.12" d="M31.8776 21.2111L26.9082 24.0323L26.9976 24.1217L31.8652 21.3551C32.563 20.9578 32.9057 20.4362 32.9057 19.9172C32.8635 20.394 32.5084 20.846 31.8776 21.2111Z" fill="#1B1D21"/>
<path opacity="0.25" fill-rule="evenodd" clip-rule="evenodd" d="M12.4592 7.59187L31.8773 18.6233C32.5081 18.9785 32.8632 19.4429 32.9178 19.9172C32.9178 19.3982 32.5751 18.8766 31.8773 18.4793L12.4592 7.44783C11.066 6.65065 9.93604 7.31621 9.93604 8.9081V9.05214C9.93604 7.45777 11.066 6.80462 12.4592 7.59187Z" fill="white"/>
<defs>
<linearGradient id="paint0_linear" x1="17.3955" y1="-7.52023" x2="-2.36705" y2="-2.25577" gradientUnits="userSpaceOnUse">
<stop stop-color="#00A0FF"/>
<stop offset="0.00657" stop-color="#00A1FF"/>
<stop offset="0.2601" stop-color="#00BEFF"/>
<stop offset="0.5122" stop-color="#00D2FF"/>
<stop offset="0.7604" stop-color="#00DFFF"/>
<stop offset="1" stop-color="#00E3FF"/>
</linearGradient>
<linearGradient id="paint1_linear" x1="33.6946" y1="9.77282" x2="9.59784" y2="9.77282" gradientUnits="userSpaceOnUse">
<stop stop-color="#FFE000"/>
<stop offset="0.4087" stop-color="#FFBD00"/>
<stop offset="0.7754" stop-color="#FFA500"/>
<stop offset="1" stop-color="#FF9C00"/>
</linearGradient>
<linearGradient id="paint2_linear" x1="10.0221" y1="13.4703" x2="-5.84331" y2="40.1734" gradientUnits="userSpaceOnUse">
<stop stop-color="#FF3A44"/>
<stop offset="1" stop-color="#C31162"/>
</linearGradient>
<linearGradient id="paint3_linear" x1="0.6957" y1="4.07617" x2="7.77313" y2="16.0024" gradientUnits="userSpaceOnUse">
<stop stop-color="#32A071"/>
<stop offset="0.0685" stop-color="#2DA771"/>
<stop offset="0.4762" stop-color="#15CF74"/>
<stop offset="0.8009" stop-color="#06E775"/>
<stop offset="1" stop-color="#00F076"/>
</linearGradient>
</defs>
</svg>
