<svg width="40" height="40" viewBox="0 0 40 40" fill="none" xmlns="http://www.w3.org/2000/svg">
<path fill-rule="evenodd" clip-rule="evenodd" d="M16 2.3094C18.4752 0.880339 21.5248 0.880339 24 2.3094L33.3205 7.6906C35.7957 9.11966 37.3205 11.7607 37.3205 14.6188V25.3812C37.3205 28.2393 35.7957 30.8803 33.3205 32.3094L24 37.6906C21.5248 39.1197 18.4752 39.1197 16 37.6906L6.67949 32.3094C4.20428 30.8803 2.67949 28.2393 2.67949 25.3812V14.6188C2.67949 11.7607 4.20428 9.11966 6.67949 7.6906L16 2.3094Z" fill="url(#paint0_linear)"/>
<path fill-rule="evenodd" clip-rule="evenodd" d="M18.2652 18.5124C19.2963 17.9124 20.5679 17.9026 21.6081 18.4866L28.6213 22.4239C29.1945 22.7456 29.1945 23.5707 28.6213 23.8925L21.6081 27.8297C20.5679 28.4137 19.2963 28.4039 18.2652 27.804L11.5312 23.8861C10.9731 23.5613 10.973 22.7551 11.5312 22.4303L18.2652 18.5124Z" fill="white"/>
<g opacity="0.900359" filter="url(#filter0_b)">
<path fill-rule="evenodd" clip-rule="evenodd" d="M18.2652 18.4167C19.2963 17.8168 20.5679 17.807 21.6081 18.391L28.6213 22.3282C29.1945 22.65 29.1945 23.4751 28.6213 23.7968L21.6081 27.7341C20.5679 28.3181 19.2963 28.3083 18.2652 27.7084L11.5312 23.7904C10.9731 23.4657 10.9731 22.6594 11.5312 22.3347L18.2652 18.4167Z" fill="url(#paint1_linear)"/>
</g>
<path fill-rule="evenodd" clip-rule="evenodd" d="M18.2652 15.023C19.2963 14.4231 20.5679 14.4133 21.6081 14.9973L28.6213 18.9346C29.1945 19.2563 29.1945 20.0814 28.6213 20.4032L21.6081 24.3404C20.5679 24.9244 19.2963 24.9146 18.2652 24.3147L11.5312 20.3967C10.9731 20.072 10.9731 19.2657 11.5312 18.941L18.2652 15.023Z" fill="white"/>
<g filter="url(#filter1_b)">
<path fill-rule="evenodd" clip-rule="evenodd" d="M18.2652 14.908C19.2963 14.3081 20.5679 14.2983 21.6081 14.8823L28.6213 18.8195C29.1945 19.1413 29.1945 19.9664 28.6213 20.2881L21.6081 24.2254C20.5679 24.8094 19.2963 24.7996 18.2652 24.1997L11.5312 20.2817C10.9731 19.957 10.9731 19.1507 11.5312 18.826L18.2652 14.908Z" fill="url(#paint2_linear)"/>
</g>
<path fill-rule="evenodd" clip-rule="evenodd" d="M18.2652 11.3993C19.2963 10.7994 20.5679 10.7896 21.6081 11.3736L28.6213 15.3108C29.1945 15.6326 29.1945 16.4577 28.6213 16.7794L21.6081 20.7167C20.5679 21.3007 19.2963 21.2909 18.2652 20.691L11.5312 16.773C10.9731 16.4483 10.973 15.642 11.5312 15.3173L18.2652 11.3993Z" fill="white"/>
<defs>
<filter id="filter0_b" x="-16.4204" y="-13.4397" width="73.0045" height="73.0045" filterUnits="userSpaceOnUse" color-interpolation-filters="sRGB">
<feFlood flood-opacity="0" result="BackgroundImageFix"/>
<feGaussianBlur in="BackgroundImage" stdDeviation="13.5914"/>
<feComposite in2="SourceAlpha" operator="in" result="effect1_backgroundBlur"/>
<feBlend mode="normal" in="SourceGraphic" in2="effect1_backgroundBlur" result="shape"/>
</filter>
<filter id="filter1_b" x="-16.4204" y="-16.9484" width="73.0045" height="73.0045" filterUnits="userSpaceOnUse" color-interpolation-filters="sRGB">
<feFlood flood-opacity="0" result="BackgroundImageFix"/>
<feGaussianBlur in="BackgroundImage" stdDeviation="13.5914"/>
<feComposite in2="SourceAlpha" operator="in" result="effect1_backgroundBlur"/>
<feBlend mode="normal" in="SourceGraphic" in2="effect1_backgroundBlur" result="shape"/>
</filter>
<linearGradient id="paint0_linear" x1="22.2029" y1="-16.5631" x2="-10.9232" y2="19.0311" gradientUnits="userSpaceOnUse">
<stop stop-color="#32C5FF"/>
<stop offset="0.533966" stop-color="#B620E0"/>
<stop offset="1" stop-color="#FFAA12"/>
</linearGradient>
<linearGradient id="paint1_linear" x1="21.8112" y1="12.1722" x2="9.855" y2="18.5838" gradientUnits="userSpaceOnUse">
<stop stop-color="white" stop-opacity="0.475466"/>
<stop offset="1" stop-color="white" stop-opacity="0.272734"/>
</linearGradient>
<linearGradient id="paint2_linear" x1="23.8297" y1="12.9328" x2="14.132" y2="18.6039" gradientUnits="userSpaceOnUse">
<stop stop-color="white" stop-opacity="0.200771"/>
<stop offset="1" stop-color="white" stop-opacity="0.697855"/>
</linearGradient>
</defs>
</svg>
