<svg xmlns="http://www.w3.org/2000/svg" width="134" height="38" viewBox="0 0 134 38">
  <defs>
    <linearGradient id="logo-a" x1="55.419%" x2="-26.074%" y1="-47.437%" y2="47.418%">
      <stop offset="0%" stop-color="#32C5FF"/>
      <stop offset="53.397%" stop-color="#B620E0"/>
      <stop offset="100%" stop-color="#FFAA12"/>
    </linearGradient>
    <linearGradient id="logo-b" x1="59.64%" x2="-7.01%" y1="15.462%" y2="35.796%">
      <stop offset="0%" stop-color="#FFF" stop-opacity=".475"/>
      <stop offset="100%" stop-color="#FFF" stop-opacity=".273"/>
    </linearGradient>
    <linearGradient id="logo-c" x1="70.892%" x2="16.832%" y1="29.002%" y2="46.987%">
      <stop offset="0%" stop-color="#FFF" stop-opacity=".201"/>
      <stop offset="100%" stop-color="#FFF" stop-opacity=".698"/>
    </linearGradient>
  </defs>
  <g fill="none" fill-rule="evenodd">
    <path fill="#11142D" d="M91.6204,10.2955 C92.3401,10.2955 92.9556,10.0549 93.467,9.5739 C93.9784,9.0928 94.234,8.51516 94.234,7.84092 C94.234,7.17425 93.9784,6.60039 93.467,6.11933 C92.9556,5.63827 92.3363,5.39774 91.609,5.39774 C90.8969,5.39774 90.2833,5.63827 89.7681,6.11933 C89.253,6.60039 88.9954,7.17425 88.9954,7.84092 C88.9954,8.51516 89.253,9.0928 89.7681,9.5739 C90.2833,10.0549 90.9007,10.2955 91.6204,10.2955 Z M60.7273,29.2671 C59.2803,29.9754 57.5947,30.3296 55.6704,30.3296 C53.7386,30.3296 52.0492,29.9754 50.6023,29.2671 C49.1553,28.5587 48.0303,27.5682 47.2273,26.2955 C46.4242,25.0227 46.0227,23.5379 46.0227,21.8409 L46.0227,6.72728 L50.9432,6.72728 L50.9432,21.4205 C50.9432,22.3068 51.1382,23.0947 51.5284,23.7841 C51.9185,24.4735 52.4697,25.0152 53.1818,25.4091 C53.8939,25.803 54.7235,26 55.6704,26 C56.625,26 57.4564,25.803 58.1648,25.4091 C58.8731,25.0152 59.4223,24.4735 59.8125,23.7841 C60.2026,23.0947 60.3977,22.3068 60.3977,21.4205 L60.3977,6.72728 L65.3182,6.72728 L65.3182,21.8409 C65.3182,23.5379 64.9148,25.0227 64.1079,26.2955 C63.3011,27.5682 62.1742,28.5587 60.7273,29.2671 Z M74.1182,19.9091 L74.1182,30 L69.2773,30 L69.2773,12.5455 L73.8909,12.5455 L73.8909,15.625 L74.0954,15.625 C74.4818,14.6099 75.1295,13.8049 76.0386,13.2102 C76.9477,12.6155 78.05,12.3182 79.3454,12.3182 C80.5576,12.3182 81.6144,12.5833 82.5159,13.1136 C83.4174,13.6439 84.1182,14.3996 84.6182,15.3807 C85.1182,16.3618 85.3682,17.5303 85.3682,18.8864 L85.3682,30 L80.5273,30 L80.5273,19.75 C80.5348,18.6818 80.2621,17.8466 79.7091,17.2443 C79.1561,16.6421 78.3947,16.3409 77.425,16.3409 C76.7735,16.3409 76.1996,16.4811 75.7034,16.7614 C75.2072,17.0417 74.8208,17.4489 74.5443,17.983 C74.2678,18.5171 74.1257,19.1591 74.1182,19.9091 Z M94.0181,12.5455 L94.0181,30 L89.1772,30 L89.1772,12.5455 L94.0181,12.5455 Z M104.864,30.2386 C105.492,30.2159 106.026,30.1534 106.466,30.0511 C106.905,29.9489 107.246,29.8599 107.489,29.7841 L106.727,26.1818 C106.606,26.2046 106.432,26.2367 106.204,26.2784 C105.977,26.3201 105.75,26.3409 105.523,26.3409 C105.197,26.3409 104.911,26.2917 104.665,26.1932 C104.418,26.0947 104.227,25.9224 104.091,25.6761 C103.954,25.4299 103.886,25.0833 103.886,24.6364 L103.886,16.182 L107.17,16.1818 L107.17,12.5455 L103.886,12.546 L103.886,8.36364 L99.045,8.36364 L99.045,12.546 L96.659,12.5455 L96.659,16.1818 L99.045,16.182 L99.045,25.2727 C99.038,26.3127 99.235,27.1898 99.635,27.9042 L99.761,28.1136 C100.246,28.8636 100.926,29.4167 101.801,29.7727 C102.579,30.0892 103.472,30.2471 104.48,30.2464023 C104.606,30.2464023 104.734,30.2437 104.864,30.2386 Z M116.37,35.9716 C115.522,36.3542 114.499,36.5455 113.302,36.5455 C112.688,36.5455 112.115,36.4981 111.581,36.4034 C111.046,36.3087 110.605,36.1894 110.257,36.0455 L111.348,32.4318 C111.916,32.6061 112.429,32.7008 112.887,32.7159 C113.346,32.7311 113.743,32.625 114.081,32.3977 C114.418,32.1705 114.692,31.7841 114.904,31.2386 L115.188,30.5 L108.927,12.5455 L114.018,12.5455 L117.632,25.3636 L117.814,25.3636 L121.461,12.5455 L126.586,12.5682 L119.802,31.8864 C119.476,32.8258 119.035,33.6458 118.478,34.3466 C117.921,35.0474 117.219,35.589 116.37,35.9716 Z"/>
    <polygon fill="#6C5DD3" fill-rule="nonzero" points="133.605 30 133.605 24.984 128.589 24.984 128.589 30"/>
    <path fill="url(#logo-a)" d="M13.3189,1.3094 C15.7941,-0.119661 18.8437,-0.119661 21.3189,1.3094 L30.6394,6.6906 C33.1146,8.11966 34.6394,10.7607 34.6394,13.6188 L34.6394,24.3812 C34.6394,27.2393 33.1146,29.8803 30.6394,31.3094 L21.3189,36.6906 C18.8437,38.1197 15.7941,38.1197 13.3189,36.6906 L3.9984,31.3094 C1.52319,29.8803 -0.0016,27.2393 -0.0016,24.3812 L-0.0016,13.6188 C-0.0016,10.7607 1.52319,8.11966 3.9984,6.6906 L13.3189,1.3094 Z"/>
    <path fill="#FFF" d="M15.5843,17.5124 C16.6154,16.9124 17.887,16.9026 18.9272,17.4866 L25.9404,21.4239 C26.5136,21.7456 26.5136,22.5707 25.9404,22.8925 L18.9272,26.8297 C17.887,27.4137 16.6154,27.4039 15.5843,26.804 L8.8503,22.8861 C8.2921,22.5613 8.2921,21.7551 8.8503,21.4303 L15.5843,17.5124 Z"/>
    <path fill="url(#logo-b)" d="M7.5843,1.4167 C8.6154,0.8168 9.887,0.807 10.9272,1.391 L17.9404,5.3282 C18.5136,5.65 18.5136,6.4751 17.9404,6.7968 L10.9272,10.7341 C9.887,11.3181 8.6154,11.3083 7.5843,10.7084 L0.8503,6.7904 C0.2921,6.4657 0.2921,5.6594 0.8503,5.3347 L7.5843,1.4167 Z" opacity=".9" transform="translate(8 16)"/>
    <path fill="#FFF" d="M15.5843,14.023 C16.6154,13.4231 17.887,13.4133 18.9272,13.9973 L25.9404,17.9346 C26.5136,18.2563 26.5136,19.0814 25.9404,19.4032 L18.9272,23.3404 C17.887,23.9244 16.6154,23.9146 15.5843,23.3147 L8.8503,19.3967 C8.2921,19.072 8.2921,18.2657 8.8503,17.941 L15.5843,14.023 Z"/>
    <path fill="url(#logo-c)" d="M15.5843,13.908 C16.6154,13.3081 17.887,13.2983 18.9272,13.8823 L25.9404,17.8195 C26.5136,18.1413 26.5136,18.9664 25.9404,19.2881 L18.9272,23.2254 C17.887,23.8094 16.6154,23.7996 15.5843,23.1997 L8.8503,19.2817 C8.2921,18.957 8.2921,18.1507 8.8503,17.826 L15.5843,13.908 Z"/>
    <path fill="#FFF" d="M15.5843,10.3993 C16.6154,9.7994 17.887,9.7896 18.9272,10.3736 L25.9404,14.3108 C26.5136,14.6326 26.5136,15.4577 25.9404,15.7794 L18.9272,19.7167 C17.887,20.3007 16.6154,20.2909 15.5843,19.691 L8.8503,15.773 C8.2921,15.4483 8.2921,14.642 8.8503,14.3173 L15.5843,10.3993 Z"/>
  </g>
</svg>
