<svg width="16" height="16" viewBox="0 0 16 16" fill="none" xmlns="http://www.w3.org/2000/svg">
<path fill-rule="evenodd" clip-rule="evenodd" d="M0 8C0 3.6 3.6 0 8 0C12.4 0 16 3.6 16 8C16 12.4 12.4 16 8 16C3.6 16 0 12.4 0 8ZM2 8C2 11.3 4.7 14 8 14C11.3 14 14 11.3 14 8C14 4.7 11.3 2 8 2C4.7 2 2 4.7 2 8Z" fill="#355DFF"/>
<path fill-rule="evenodd" clip-rule="evenodd" d="M4 8C4 5.8 5.8 4 8 4C10.2 4 12 5.8 12 8C12 10.2 10.2 12 8 12C5.8 12 4 10.2 4 8ZM6 8C6 9.1 6.9 10 8 10C9.1 10 10 9.1 10 8C10 6.9 9.1 6 8 6C6.9 6 6 6.9 6 8Z" fill="#355DFF"/>
</svg>
