<svg width="33" height="32" viewBox="0 0 33 32" fill="none" xmlns="http://www.w3.org/2000/svg">
<path d="M14.5999 3.6C9.91005 2.9365 5.28516 5.17779 2.89995 9.27C2.66827 9.66274 2.73161 10.1625 3.05395 10.485L5.66995 13.1C8.01745 9.39585 11.048 6.17192 14.5999 3.6Z" fill="white"/>
<path d="M18.8921 26.319L21.5151 28.942C21.8378 29.2649 22.3381 29.3282 22.7311 29.096C23.5839 28.5962 24.3707 27.9915 25.0731 27.296C27.6956 24.6928 28.9262 20.999 28.3891 17.343C25.8175 20.9069 22.5952 23.9524 18.8921 26.319Z" fill="white"/>
<path fill-rule="evenodd" clip-rule="evenodd" d="M30.947 2.6651e-06C31.2314 -0.0110406 31.5075 0.0977936 31.708 0.300003C31.9081 0.499978 32.0142 0.775403 32 1.058C30.948 19.558 14.487 26.5 14.321 26.566C13.9479 26.7185 13.5197 26.6322 13.235 26.347L5.65295 18.766C5.36959 18.4828 5.28262 18.0578 5.43195 17.686C5.49995 17.519 12.36 0.972003 30.947 2.6651e-06ZM16 13.5C16 14.8807 17.1192 16 18.5 16C19.8807 16 21 14.8807 21 13.5C21 12.1193 19.8807 11 18.5 11C17.1192 11 16 12.1193 16 13.5Z" fill="white"/>
<path d="M7.828 24.172C9.38953 25.734 9.38953 28.266 7.828 29.828C6.266 31.391 0 32 0 32C0 32 0.609 25.734 2.172 24.172C3.734 22.6105 6.266 22.6105 7.828 24.172Z" fill="white"/>
</svg>
