<?xml version="1.0" encoding="UTF-8"?><!DOCTYPE svg PUBLIC "-//W3C//DTD SVG 1.1//EN" "http://www.w3.org/Graphics/SVG/1.1/DTD/svg11.dtd"><svg xmlns="http://www.w3.org/2000/svg"><symbol id="icon-activity" viewBox="0 0 21 22">
    <path d="M12.925 1.37a.75.75 0 0 1 .102 1.493l-.102.007H5.657c-2.455 0-4.034 1.626-4.125 4.161l-.004.233v8.082c0 2.602 1.483 4.284 3.906 4.381l.223.004h8.604c2.457 0 4.034-1.619 4.125-4.152l.004-.233V8.308a.75.75 0 0 1 1.493-.102l.007.102v7.039c0 3.39-2.14 5.772-5.394 5.881l-.234.004H5.657c-3.331 0-5.525-2.29-5.625-5.644l-.004-.241V7.264c0-3.392 2.142-5.781 5.394-5.89l.234-.004h7.268zm2.116 6.83a.75.75 0 0 1 .195.96l-.061.093-2.929 3.78a.75.75 0 0 1-.964.193l-.093-.062L8.37 10.95l-2.531 3.29a.75.75 0 0 1-.959.198l-.093-.061a.75.75 0 0 1-.198-.959l.061-.093 2.993-3.89a.75.75 0 0 1 .965-.195l.093.062 2.82 2.215 2.467-3.183a.75.75 0 0 1 1.052-.133zM17.995.528a2.672 2.672 0 1 1 0 5.343 2.672 2.672 0 0 1 0-5.343zm0 1.5a1.172 1.172 0 1 0 0 2.345 1.172 1.172 0 0 0 0-2.345z"/>
</symbol><symbol id="icon-arrow-down-square" viewBox="0 0 20 20">
    <path fill-rule="evenodd" d="M5.666 0h8.669C17.739 0 20 2.43 20 5.916v8.168C20 17.567 17.732 20 14.335 20H5.666C2.262 20 0 17.57 0 14.084V5.916C0 2.429 2.262 0 5.666 0zm8.669 1.5H5.666C3.116 1.5 1.5 3.235 1.5 5.916v8.168c0 2.681 1.615 4.416 4.166 4.416h8.669c2.544 0 4.165-1.739 4.165-4.416V5.916c0-2.681-1.615-4.416-4.165-4.416zM10 5.164a.75.75 0 0 1 .743.648l.007.102v6.355l2.466-2.476a.75.75 0 0 1 .977-.075l.084.073a.75.75 0 0 1 .075.976l-.072.085-3.748 3.764a.75.75 0 0 1-.98.072l-.002-.002a.754.754 0 0 1-.08-.069l-.001-.002-3.748-3.764a.75.75 0 0 1 .978-1.13l.084.072 2.467 2.478V5.914a.75.75 0 0 1 .75-.75z"/>
</symbol><symbol id="icon-arrow-down" viewBox="0 0 12 8">
    <path d="M10.28.305L5.989 4.598 1.695.305A1 1 0 0 0 .28 1.72l5 5a1 1 0 0 0 1.414 0l5-5A1 1 0 1 0 10.28.305z"/>
</symbol><symbol id="icon-arrow-right" viewBox="0 0 16 11">
    <path d="M10.784.089l.069.058 5.012 5.012a.4.4 0 0 1 .033.039l-.045-.051a.5.5 0 0 1 .069.087l.02.035.019.042.014.039.012.046.006.033a.475.475 0 0 1 .005.053v.04c-.001.017-.002.034-.005.051L16 5.5a.5.5 0 0 1-.011.105l-.012.046-.015.04-.019.041-.02.035-.011.017-.013.018a.31.31 0 0 1-.033.039l-.012.012-5 5a.5.5 0 0 1-.765-.638l.058-.069L14.293 6H.5a.5.5 0 0 1-.09-.992L.5 5h13.793L10.146.854a.5.5 0 0 1-.058-.638l.058-.069a.5.5 0 0 1 .638-.058z"/>
</symbol><symbol id="icon-arrow-up-right-square" viewBox="0 0 16 16">
    <path d="M14.5 0A1.5 1.5 0 0 1 16 1.5v13a1.5 1.5 0 0 1-1.5 1.5h-13A1.5 1.5 0 0 1 0 14.5v-13A1.5 1.5 0 0 1 1.5 0zm0 1h-13a.5.5 0 0 0-.5.5v13a.5.5 0 0 0 .5.5h13a.5.5 0 0 0 .5-.5v-13a.5.5 0 0 0-.5-.5zm-2 2h.012a.42.42 0 0 1 .062.005L12.5 3a.5.5 0 0 1 .105.011l.046.012.04.015.041.019.035.02.035.024.039.033.024.024a.4.4 0 0 1 .033.039l-.045-.051a.5.5 0 0 1 .069.087l.02.035.019.042.014.039.012.046.006.033c.003.017.004.035.005.052V8.5a.5.5 0 0 1-.992.09L12 8.5V4.706L6.854 9.854a.5.5 0 0 1-.765-.638l.058-.069L11.292 4H7.5a.5.5 0 0 1-.492-.41L7 3.5a.5.5 0 0 1 .41-.492L7.5 3h5z"/>
</symbol><symbol id="icon-arrow-up-right" viewBox="0 0 10 10">
    <path d="M9.5 0h.012a.42.42 0 0 1 .062.005L9.5 0a.5.5 0 0 1 .105.011l.046.012.04.015.041.019.035.02.035.024.039.033.024.024a.4.4 0 0 1 .033.039L9.854.146a.5.5 0 0 1 .069.087l.02.035.019.042.014.039.012.046.006.033c.003.017.004.035.005.052V6.5a.5.5 0 0 1-.992.09L9 6.5V1.706L.854 9.854a.5.5 0 0 1-.765-.638l.058-.069L8.292 1H3.5a.5.5 0 0 1-.492-.41L3 .5a.5.5 0 0 1 .41-.492L3.5 0h6z"/>
</symbol><symbol id="icon-award" viewBox="0 0 10 16">
    <circle cx="5" cy="5" r="5"/>
    <path d="M5 12c-1.1 0-2.1-.3-3-.7V16l3-2 3 2v-4.7c-.9.4-1.9.7-3 .7z"/>
</symbol><symbol id="icon-calendar" viewBox="0 0 16 16">
    <path d="M12.231 0a.5.5 0 0 1 .492.41l.008.09V2h1.5a1.5 1.5 0 0 1 1.493 1.356l.007.144v11a1.5 1.5 0 0 1-1.5 1.5h-12a1.5 1.5 0 0 1-1.5-1.5v-11a1.5 1.5 0 0 1 1.5-1.5h1.5V.5a.5.5 0 0 1 .992-.09l.008.09V2h3V.5a.5.5 0 0 1 .992-.09l.008.09V2h3V.5a.5.5 0 0 1 .5-.5zm2.5 6h-13v8.5a.5.5 0 0 0 .41.492l.09.008h12a.5.5 0 0 0 .5-.5V6zm-4.5 1a.5.5 0 0 1 .492.41l.008.09V10h2.5a.5.5 0 0 1 .09.992l-.09.008h-2.5v2.5a.5.5 0 0 1-.992.09l-.008-.09V11h-3v2.5a.5.5 0 0 1-.992.09l-.008-.09V11h-2.5a.5.5 0 0 1-.09-.992l.09-.008h2.5V7.5a.5.5 0 0 1 .992-.09l.008.09V10h3V7.5a.5.5 0 0 1 .5-.5zm4-4h-12a.5.5 0 0 0-.5.5V5h13V3.5a.5.5 0 0 0-.41-.492L14.231 3z"/>
</symbol><symbol id="icon-chart" viewBox="0 0 22 22">
    <path d="M15.686.25c3.646 0 6.064 2.598 6.064 6.335v8.83c0 3.737-2.419 6.335-6.064 6.335H6.315C2.669 21.75.25 19.152.25 15.415v-8.83C.25 2.851 2.675.25 6.314.25zm0 1.5H6.314c-2.786 0-4.564 1.907-4.564 4.835v8.83c0 2.932 1.772 4.835 4.564 4.835h9.371c2.792 0 4.564-1.903 4.564-4.835v-8.83c0-2.932-1.772-4.835-4.564-4.835zM6.371 8.452a.75.75 0 0 1 .743.648l.007.102v6.86a.75.75 0 0 1-1.493.102l-.007-.102v-6.86a.75.75 0 0 1 .75-.75zm4.667-3.283a.75.75 0 0 1 .743.648l.007.102v10.143a.75.75 0 0 1-1.493.102l-.007-.102V5.919a.75.75 0 0 1 .75-.75zm4.591 6.908a.75.75 0 0 1 .743.648l.007.102v3.235a.75.75 0 0 1-1.493.102l-.007-.102v-3.235a.75.75 0 0 1 .75-.75z"/>
</symbol><symbol id="icon-check" viewBox="0 0 16 14">
    <path d="M5.6 8.6L2.4 5.4 0 7.8l5.6 5.6L16 3 13.6.6l-8 8z"/>
</symbol><symbol id="icon-clock" viewBox="0 0 15 15">
    <path d="M7.5 0a7.5 7.5 0 1 1 0 15 7.5 7.5 0 0 1 0-15zm0 1a6.5 6.5 0 1 0 0 13 6.5 6.5 0 0 0 0-13zm0 2a.5.5 0 0 1 .492.41L8 3.5V7h3.5a.5.5 0 0 1 .492.41L12 7.5a.5.5 0 0 1-.41.492L11.5 8h-4a.5.5 0 0 1-.492-.41L7 7.5v-4a.5.5 0 0 1 .5-.5z"/>
</symbol><symbol id="icon-close" viewBox="0 0 8 8">
    <path d="M.784.089l.07.057L4 3.293 7.146.146a.5.5 0 0 1 .765.638l-.057.07L4.707 4l3.147 3.146a.5.5 0 0 1-.638.765l-.07-.057L4 4.707.854 7.854a.5.5 0 0 1-.765-.638l.057-.07L3.293 4 .146.854A.5.5 0 0 1 .784.089z"/>
</symbol><symbol id="icon-copy" viewBox="0 0 16 16">
    <path d="M11 12H1a1 1 0 0 1-1-1V1a1 1 0 0 1 1-1h10a1 1 0 0 1 1 1v10a1 1 0 0 1-1 1z"/>
    <path d="M15 16H4v-2h10V4h2v11a1 1 0 0 1-1 1z"/>
</symbol><symbol id="icon-deposit" viewBox="0 0 17 16">
    <path d="M6.5 7h-6v2h6v3l4-4-4-4v3z"/>
    <path d="M15.5 16h-14a1 1 0 0 1-1-1v-4h2v3h12V2h-12v3h-2V1a1 1 0 0 1 1-1h14a1 1 0 0 1 1 1v14a1 1 0 0 1-1 1z"/>
</symbol><symbol id="icon-discount" viewBox="0 0 20 20">
    <path d="M11.951.716l.182.17.719.719c.247.246.571.397.915.431l.149.007h1.028a3.013 3.013 0 0 1 3.007 2.835l.005.177v1.027a1.51 1.51 0 0 0 .338.953l.099.11.719.719a3.011 3.011 0 0 1 .145 4.115l-.135.145-.728.728c-.245.246-.397.57-.431.914l-.007.149v1.029a3.01 3.01 0 0 1-2.835 3.006l-.177.005h-1.028a1.51 1.51 0 0 0-.953.339l-.11.099-.718.717a3.01 3.01 0 0 1-4.115.146l-.154-.144-.717-.717a1.511 1.511 0 0 0-.916-.433l-.148-.007h-1.03a3.01 3.01 0 0 1-3.006-2.834l-.005-.177v-1.029a1.51 1.51 0 0 0-.339-.952l-.099-.11-.717-.718A3.01 3.01 0 0 1 .743 8.02l.135-.145.726-.727c.247-.249.399-.573.433-.917l.007-.149V5.056l.005-.177a3.012 3.012 0 0 1 2.829-2.83l.177-.005h1.029a1.51 1.51 0 0 0 .952-.338l.11-.099.718-.719c1.127-1.132 2.93-1.182 4.087-.172zm-2.91 1.126l-.115.104-.721.722a3.01 3.01 0 0 1-1.924.868l-.198.007H5.055c-.788 0-1.435.604-1.505 1.374l-.006.138v1.027a3.01 3.01 0 0 1-.742 1.978l-.135.146-.727.728a1.51 1.51 0 0 0-.096 2.024l.104.115.719.72c.514.516.823 1.201.871 1.924l.007.198v1.029a1.51 1.51 0 0 0 1.374 1.505l.137.006h1.029a3.01 3.01 0 0 1 1.978.742l.146.135.723.723a1.514 1.514 0 0 0 2.028.1l.115-.104.721-.72a3.01 3.01 0 0 1 1.924-.87l.198-.007h1.028a1.51 1.51 0 0 0 1.506-1.373l.006-.138v-1.029c0-.729.265-1.432.741-1.978l.135-.145.728-.727a1.51 1.51 0 0 0 .097-2.024l-.104-.115-.722-.722a3.01 3.01 0 0 1-.868-1.924l-.007-.198V5.056c0-.788-.604-1.436-1.374-1.506l-.138-.006h-1.028a3.01 3.01 0 0 1-1.978-.741l-.145-.135-.688-.69-.04-.037a1.51 1.51 0 0 0-2.023-.098zm4.055 10.2c.07.07.13.15.17.24a.93.93 0 0 1 .05.29c0 .101-.02.19-.05.28a.85.85 0 0 1-.17.25.75.75 0 0 1-1.06 0 .82.82 0 0 1-.16-.25.67.67 0 0 1-.06-.28.776.776 0 0 1 .22-.53c.28-.28.78-.28 1.06 0zm.004-5.143a.75.75 0 0 1 .073.977l-.073.084-5.14 5.14a.75.75 0 0 1-1.133-.977l.073-.084 5.14-5.14a.75.75 0 0 1 1.061 0zm-5.144.004a.75.75 0 0 1 .22.53c0 .1-.01.189-.05.28s-.1.17-.17.25a.773.773 0 0 1-.24.159.72.72 0 0 1-.29.061.67.67 0 0 1-.28-.061.82.82 0 0 1-.25-.159c-.07-.08-.12-.16-.16-.25s-.06-.18-.06-.28.02-.2.06-.29.09-.18.16-.24a.772.772 0 0 1 1.06 0z"/>
</symbol><symbol id="icon-document-plus" viewBox="0 0 24 27">
    <path d="M15.298.917c.05 0 .099.005.146.014l.204.001a.75.75 0 0 1 .45.15l.091.081 6.755 7.035a.75.75 0 0 1 .2.404l.009.115V21.12c0 3.096-2.453 5.661-5.504 5.779l-.219.004H6.779c-3.25 0-5.744-2.366-5.858-5.554l-.004-.229V6.654c0-3.068 2.558-5.602 5.641-5.718l.221-.004 8.373-.001a.777.777 0 0 1 .146-.014zm-.751 1.515H6.779c-2.295 0-4.244 1.811-4.357 4.02l-.005.202V21.12c0 2.395 1.748 4.176 4.143 4.279l.219.005H17.43c2.25 0 4.111-1.824 4.218-4.077l.005-.206V9.731l-2.931-.002a4.184 4.184 0 0 1-4.169-3.975l-.005-.208-.001-3.114zm.512 11.287l.144.007a1.5 1.5 0 0 1 1.356 1.493l-.007.144a1.5 1.5 0 0 1-1.493 1.356h-1.768l.001 1.768-.007.144a1.5 1.5 0 0 1-1.493 1.356l-.144-.007a1.5 1.5 0 0 1-1.356-1.493l-.001-1.768H8.524l-.144-.007a1.5 1.5 0 0 1-1.356-1.493l.007-.144a1.5 1.5 0 0 1 1.493-1.356h1.767l.001-1.766.007-.144a1.5 1.5 0 0 1 1.493-1.356l.144.007a1.5 1.5 0 0 1 1.356 1.493l-.001 1.766h-.749l-.001.75h.751l-.001-.75h1.768zm-1.768 2.25h-.751l.001.75h.749l.001-.75zm-2.251 0h-.749l-.001.75h.751l-.001-.75zm.751-1.5l-.007.102a.75.75 0 0 1-.743.648l.102.007a.75.75 0 0 1 .648.743l.007-.102a.75.75 0 0 1 .743-.648l-.102-.007a.75.75 0 0 1-.648-.743zm-.75-.75h-.751l.001.75h.749l.001-.75zM16.047 3.18l.001 2.366c0 1.48 1.197 2.68 2.677 2.683l2.169-.001-4.847-5.048z"/>
</symbol><symbol id="icon-document-two-lines" viewBox="0 0 24 27">
    <path d="M15.299.917c.05 0 .099.005.146.014l.204.001a.75.75 0 0 1 .541.231l6.753 7.035a.75.75 0 0 1 .209.519v12.221c0 3.198-2.593 5.965-5.722 5.965H6.778c-3.3 0-5.862-2.634-5.862-5.965V6.654C.916 3.513 3.598.932 6.778.932l8.375-.001a.777.777 0 0 1 .146-.014zm-.751 1.515h-7.77c-2.365 0-4.362 1.922-4.362 4.222v14.284c0 2.511 1.9 4.465 4.362 4.465H17.43c2.278 0 4.222-2.074 4.222-4.465L21.651 9.73l-2.93-.002a4.182 4.182 0 0 1-4.167-3.975l-.005-.208-.001-3.114zm.497 15.562a.75.75 0 0 1 .102 1.493l-.102.007H7.849a.75.75 0 0 1-.102-1.493l.102-.007h7.196zm-2.721-6.603a.75.75 0 0 1 .102 1.493l-.102.007H7.849a.75.75 0 0 1-.102-1.493l.102-.007h4.475zm3.725-8.209l.001 2.364c0 1.48 1.197 2.68 2.676 2.683l2.168-.001-4.844-5.046z"/>
</symbol><symbol id="icon-document" viewBox="0 0 19 20">
    <path d="M12.909 0c3.182 0 5.257 2.142 5.257 5.357v9.196c0 3.197-2.057 5.335-5.22 5.354l-7.689.003c-3.182 0-5.256-2.141-5.256-5.357V5.357C.001 2.16 2.057.023 5.219.004zm0 1.5l-7.685.004C2.901 1.518 1.5 2.974 1.5 5.357v9.196c0 2.398 1.414 3.857 3.756 3.857l7.685-.003c2.323-.014 3.725-1.471 3.725-3.854V5.357c0-2.397-1.414-3.857-3.757-3.857zm-.193 11.974a.75.75 0 0 1 .102 1.493l-.102.007h-7.22a.75.75 0 0 1-.102-1.493l.102-.007h7.22zm0-4.187a.75.75 0 0 1 .102 1.493l-.102.007h-7.22a.75.75 0 0 1-.102-1.493l.102-.007h7.22zM8.251 5.11a.75.75 0 0 1 .102 1.493l-.102.007H5.496a.75.75 0 0 1-.102-1.493l.102-.007h2.755z"/>
</symbol><symbol id="icon-dots" viewBox="0 0 12 12">
    <circle cx="6" cy="6" r="1.5"/>
    <circle cx="10.5" cy="6" r="1.5"/>
    <circle cx="1.5" cy="6" r="1.5"/>
</symbol><symbol id="icon-home" viewBox="0 0 22 22">
    <path d="M6.714 12.016a3.21 3.21 0 0 1 3.199 3.221v3.293a3.21 3.21 0 0 1-3.199 3.22H3.448A3.21 3.21 0 0 1 .25 18.53v-3.293a3.21 3.21 0 0 1 3.199-3.221zm11.838 0a3.21 3.21 0 0 1 3.198 3.221v3.293a3.21 3.21 0 0 1-3.198 3.22h-3.267a3.21 3.21 0 0 1-3.199-3.22v-3.293a3.21 3.21 0 0 1 3.199-3.221zm-11.838 1.5H3.449a1.71 1.71 0 0 0-1.699 1.721v3.293a1.71 1.71 0 0 0 1.699 1.72h3.266a1.71 1.71 0 0 0 1.699-1.72v-3.293a1.71 1.71 0 0 0-1.699-1.721zm11.838 0h-3.267a1.71 1.71 0 0 0-1.699 1.721v3.293a1.71 1.71 0 0 0 1.699 1.72h3.267a1.71 1.71 0 0 0 1.698-1.72v-3.293a1.71 1.71 0 0 0-1.698-1.721zm0-13.266a3.21 3.21 0 0 1 3.198 3.22v3.294c0 1.776-1.431 3.22-3.198 3.22h-3.267c-1.768 0-3.199-1.444-3.199-3.22V3.47a3.21 3.21 0 0 1 3.2-3.22zM6.714.25a3.21 3.21 0 0 1 3.199 3.22v3.294c0 1.776-1.431 3.22-3.199 3.22H3.448C1.681 9.984.25 8.54.25 6.764V3.47A3.21 3.21 0 0 1 3.449.25zm11.838 1.5h-3.267a1.71 1.71 0 0 0-1.699 1.72v3.294a1.71 1.71 0 0 0 1.699 1.72h3.267a1.71 1.71 0 0 0 1.698-1.72V3.47a1.71 1.71 0 0 0-1.698-1.72zm-11.838 0H3.449A1.71 1.71 0 0 0 1.75 3.47v3.294a1.71 1.71 0 0 0 1.699 1.72h3.266a1.71 1.71 0 0 0 1.699-1.72V3.47a1.71 1.71 0 0 0-1.699-1.72z"/>
</symbol><symbol id="icon-info-circle" viewBox="0 0 12 12">
    <path fill-rule="evenodd" clip-rule="evenodd" d="M0 6c0-3.3 2.7-6 6-6s6 2.7 6 6-2.7 6-6 6-6-2.7-6-6zm1.5 0c0 2.475 2.025 4.5 4.5 4.5s4.5-2.025 4.5-4.5S8.475 1.5 6 1.5A4.513 4.513 0 0 0 1.5 6z"/>
    <path d="M5.25 5.25h1.5V9h-1.5z"/>
    <circle cx="6" cy="3.75" r=".75"/>
</symbol><symbol id="icon-info-square" viewBox="0 0 15 14">
    <path fill-rule="evenodd" clip-rule="evenodd" d="M10.39.334H4.61C2.345.334.834 1.955.834 4.278v5.445c0 2.324 1.507 3.944 3.776 3.944h5.78c2.269 0 3.777-1.62 3.777-3.944V4.278c0-2.325-1.508-3.944-3.777-3.944zm-5.78 1h5.78c1.7 0 2.777 1.156 2.777 2.944v5.445c0 1.787-1.077 2.944-2.778 2.944H4.61c-1.7 0-2.776-1.157-2.776-2.944V4.278c0-1.786 1.08-2.944 2.776-2.944zM7.5 3.97a.5.5 0 0 1 .068.995l-.075.005a.5.5 0 0 1-.068-.996L7.5 3.97zm-.007 2.115a.5.5 0 0 1 .496.432l.004.068V9.53a.5.5 0 0 1-.995.068l-.005-.068V6.585a.5.5 0 0 1 .5-.5z"/>
</symbol><symbol id="icon-link" viewBox="0 0 16 14">
    <path d="M13 4.142v2.136c.595.347 1 .985 1 1.722v2c0 1.103-.897 2-2 2H8c-1.103 0-2-.897-2-2V8c0-1.103.897-2 2-2h1V4H8C5.794 4 4 5.794 4 8v2c0 2.206 1.794 4 4 4h4c2.206 0 4-1.794 4-4V8c0-1.859-1.279-3.411-3-3.858z"/>
    <path d="M8 0H4C1.794 0 0 1.794 0 4v2c0 1.859 1.279 3.411 3 3.858V7.722C2.405 7.375 2 6.737 2 6V4c0-1.103.897-2 2-2h4c1.103 0 2 .897 2 2v2c0 1.103-.897 2-2 2H7v2h1c2.206 0 4-1.794 4-4V4c0-2.206-1.794-4-4-4z"/>
</symbol><symbol id="icon-notification" viewBox="0 0 20 22">
    <path d="M12.837 19.268a.75.75 0 0 1 .114 1.055 3.59 3.59 0 0 1-.649.627 3.84 3.84 0 0 1-2.798.774 3.81 3.81 0 0 1-2.536-1.404.75.75 0 0 1 1.173-.935 2.31 2.31 0 0 0 1.538.849 2.345 2.345 0 0 0 1.715-.479 2.14 2.14 0 0 0 .388-.374.75.75 0 0 1 1.055-.114zM10.039.25c3.664 0 7.027 2.626 7.364 6.112l.01.131.014.264.006.301v.723l.005.332.01.211.048.201c.153.56.422 1.084.791 1.539l.164.191.067.085a4.28 4.28 0 0 1 .73 2.23l-.001.434a4.355 4.355 0 0 1-1.05 2.683 5.242 5.242 0 0 1-3.315 1.599 45.8 45.8 0 0 1-9.766.001 5.328 5.328 0 0 1-3.359-1.639A4.34 4.34 0 0 1 .75 12.789l.001-.256a4.35 4.35 0 0 1 .726-2.197l.073-.093a4.12 4.12 0 0 0 1.01-1.957l-.016.065.003-.563.013-.652.046-.778C2.933 2.878 6.295.25 9.961.25zm0 1.5h-.078c-2.936 0-5.612 2.091-5.86 4.742l-.031.454-.017.502-.007.988-.016.152a5.62 5.62 0 0 1-1.377 2.67l.044-.051.009-.01-.096.157c-.18.32-.295.667-.341 1.01l-.019.205v.235a2.827 2.827 0 0 0 .625 1.844 3.81 3.81 0 0 0 2.392 1.145 44.36 44.36 0 0 0 9.467-.001 3.737 3.737 0 0 0 2.347-1.108 2.83 2.83 0 0 0 .667-1.906l.001-.176a2.76 2.76 0 0 0-.473-1.422l.017.027-.15-.174a5.702 5.702 0 0 1-1.102-2.147l-.071-.296-.014-.1-.007-.107-.013-.324-.003-.972-.002-.172-.012-.286-.01-.131c-.257-2.658-2.935-4.749-5.87-4.749z"/>
</symbol><symbol id="icon-ranking" viewBox="0 0 16 14">
    <path d="M2.474 9.553a.5.5 0 0 1 .257.587l-.033.084-1.75 3.5a.5.5 0 0 1-.927-.363l.033-.084 1.75-3.5a.5.5 0 0 1 .671-.224zM15.748.066a.5.5 0 0 1 .224.6l-.038.082-4 7a.5.5 0 0 1-.628.213l-.083-.045-5.53-3.686-1.555 3.111 6.307 4.506 4.701-4.701a.5.5 0 0 1 .638-.058l.069.058a.5.5 0 0 1 .058.638l-.058.069-5 5a.5.5 0 0 1-.566.099l-.078-.046L3.341 8H.5a.5.5 0 0 1-.492-.41L0 7.5a.5.5 0 0 1 .41-.492L.5 7h2.69l1.863-3.724a.5.5 0 0 1 .647-.235l.077.042 5.554 3.702L15.066.252a.5.5 0 0 1 .682-.186z"/>
</symbol><symbol id="icon-search" viewBox="0 0 20 20">
    <path fill-rule="evenodd" clip-rule="evenodd" d="M9.612 0C4.303 0 0 4.208 0 9.4c0 5.19 4.303 9.399 9.612 9.399 2.27 0 4.356-.77 6.001-2.058l3.124 3.048.083.07c.29.21.701.186.964-.072a.713.713 0 0 0-.002-1.023l-3.087-3.012A9.253 9.253 0 0 0 19.223 9.4C19.223 4.21 14.92 0 9.612 0zm0 1.448c4.49 0 8.13 3.56 8.13 7.951 0 4.392-3.64 7.952-8.13 7.952-4.491 0-8.132-3.56-8.132-7.952 0-4.391 3.64-7.951 8.132-7.951z"/>
</symbol><symbol id="icon-settings" viewBox="0 0 20 22">
    <path d="M10.797.528c.72 0 1.409.291 1.911.807s.773 1.213.751 1.864l.009.153c.018.151.067.296.146.43.155.264.409.456.705.533s.612.033.91-.142l.166-.086a2.665 2.665 0 0 1 3.439 1.081l.622 1.08a.75.75 0 0 1 .043.088l.058.116a2.66 2.66 0 0 1-.897 3.32l-.261.164a1.13 1.13 0 0 0-.336.369 1.153 1.153 0 0 0 .45 1.598l.169.109c.512.358.882.886 1.043 1.491a2.66 2.66 0 0 1-.276 2.028l-.67 1.115-.101.157c-.787 1.131-2.314 1.477-3.48.804l-.138-.071a1.191 1.191 0 0 0-.441-.104 1.148 1.148 0 0 0-.821.338 1.18 1.18 0 0 0-.339.857l-.008.178a2.663 2.663 0 0 1-2.654 2.444H9.543c-1.471 0-2.663-1.192-2.662-2.616l-.009-.153a1.111 1.111 0 0 0-.15-.437 1.146 1.146 0 0 0-.698-.537 1.18 1.18 0 0 0-.913.139l-.181.09a2.666 2.666 0 0 1-3.414-1.125L.87 15.494l-.086-.166c-.589-1.244-.127-2.739 1.045-3.416l.107-.067c.313-.217.501-.574.501-.956a1.18 1.18 0 0 0-.609-1.024l-.157-.101a2.665 2.665 0 0 1-.777-3.53l.659-1.083C2.286 3.879 3.91 3.44 5.16 4.156l.135.072c.138.063.288.097.432.098.636 0 1.154-.511 1.164-1.165L6.9 2.96A2.654 2.654 0 0 1 9.545.527zm0 1.5H9.544c-.307 0-.601.122-.818.34a1.14 1.14 0 0 0-.33.685l-.014.316a2.666 2.666 0 0 1-2.663 2.458 2.61 2.61 0 0 1-1.085-.253l-.195-.103a1.167 1.167 0 0 0-1.595.444l-.659 1.083c-.302.524-.151 1.192.317 1.518l.265.168a2.663 2.663 0 0 1 1.171 2.206c0 .875-.43 1.693-1.173 2.207l-.158.099c-.521.301-.721.952-.48 1.464l.057.11.639 1.102c.15.271.402.47.699.555a1.15 1.15 0 0 0 .765-.044l.11-.054a2.645 2.645 0 0 1 3.623.96c.185.312.302.659.348 1.059l.02.366a1.163 1.163 0 0 0 1.156 1.036h1.254c.606 0 1.11-.466 1.157-1.037l.006-.113c-.003-.708.277-1.388.777-1.889s1.181-.781 1.906-.777a2.73 2.73 0 0 1 1.063.25l.321.164c.503.221 1.101.06 1.403-.375l.074-.115.654-1.09c.155-.265.197-.581.118-.878a1.14 1.14 0 0 0-.426-.63l-.276-.175a2.652 2.652 0 0 1-1.078-1.515 2.65 2.65 0 0 1 .268-2.015c.193-.337.459-.627.805-.868l.163-.103c.52-.304.721-.954.48-1.469l-.072-.138-.013-.029-.594-1.031a1.164 1.164 0 0 0-1.361-.531l-.113.045-.105.053a2.653 2.653 0 0 1-2.014.282 2.65 2.65 0 0 1-1.62-1.223 2.625 2.625 0 0 1-.348-1.058l-.013-.261a1.16 1.16 0 0 0-1.164-1.196zm-.622 5.475a3.386 3.386 0 1 1 0 6.772 3.386 3.386 0 0 1 0-6.772zm0 1.5a1.885 1.885 0 1 0-.001 3.771 1.885 1.885 0 0 0 .001-3.771z"/>
</symbol><symbol id="icon-share" viewBox="0 0 17 16">
    <path d="M7.5 3.4V12h2V3.4l4 4L14.9 6 9.2.3c-.4-.4-1-.4-1.4 0L2.1 6l1.4 1.4 4-4z"/>
    <path d="M14.5 14h-12v-3h-2v4c0 .6.4 1 1 1h14c.6 0 1-.4 1-1v-4h-2v3z"/>
</symbol><symbol id="icon-star-fill" viewBox="0 0 17 16">
    <path d="M15.644 5.439l-4.317-.628L9.4.9a1.041 1.041 0 0 0-1.8 0L5.673 4.812l-4.317.627A1 1 0 0 0 .8 7.145l3.123 3.045-.737 4.3a1 1 0 0 0 1.451 1.054L8.5 13.513l3.861 2.029a1 1 0 0 0 1.451-1.054l-.737-4.3L16.2 7.145a1 1 0 0 0-.554-1.705l-.002-.001z"/>
</symbol><symbol id="icon-star" viewBox="0 0 16 16">
    <path d="M5.349 5.106l-4.92.715-.085.02a.5.5 0 0 0-.193.833l3.562 3.471-.84 4.904-.008.08a.5.5 0 0 0 .733.447L8 13.26l4.402 2.316.074.032a.5.5 0 0 0 .652-.56l-.842-4.903 3.563-3.47.057-.066a.5.5 0 0 0-.334-.788l-4.922-.715L8.448.646a.5.5 0 0 0-.896 0l-2.203 4.46zM8 1.997l1.87 3.787.051.083a.5.5 0 0 0 .325.19l4.179.607-3.024 2.949-.063.075a.5.5 0 0 0-.08.367l.713 4.164-3.738-1.966-.09-.036a.5.5 0 0 0-.376.036L4.028 14.22l.715-4.164.007-.097a.5.5 0 0 0-.151-.345L1.574 6.664l4.18-.606a.5.5 0 0 0 .376-.274L8 1.997z"/>
</symbol><symbol id="icon-swap" viewBox="0 0 26 24">
    <path d="M19.453 3.979a.75.75 0 0 1 .743.648l.007.102v16.34l4.156-4.174a.75.75 0 0 1 1.136.974l-.072.084-5.481 5.503-.032.026.076-.066a.76.76 0 0 1-.126.102l-.034.02a.54.54 0 0 1-.054.029l-.037.015a.55.55 0 0 1-.06.022l-.037.01a.413.413 0 0 1-.061.013l-.037.004a.58.58 0 0 1-.071.005h-.03l-.073-.005.088.004a.775.775 0 0 1-.119-.009.57.57 0 0 1-.067-.013l-.033-.01a.56.56 0 0 1-.062-.021l-.04-.018a.48.48 0 0 1-.047-.023l-.049-.031a.37.37 0 0 1-.032-.021l-.008-.007-.019-.015-.058-.051-5.437-5.462a.75.75 0 0 1 .979-1.131l.084.073 4.155 4.175V4.729a.75.75 0 0 1 .75-.75zM6.215.361L6.23.36l.073.005-.088-.004c.041 0 .081.003.12.01A.56.56 0 0 1 6.4.383l.034.01a.539.539 0 0 1 .064.022l.034.015a.504.504 0 0 1 .052.026l.045.029a.39.39 0 0 1 .034.023l.008.007.032.026.044.04 5.437 5.462a.75.75 0 0 1-.979 1.131l-.084-.073-4.156-4.174v16.341a.75.75 0 0 1-1.493.102l-.007-.102V2.925L1.31 7.101a.75.75 0 0 1-.976.075L.25 7.104a.75.75 0 0 1-.075-.976l.072-.084L5.684.581l.044-.04.032-.026-.076.066a.77.77 0 0 1 .118-.097l.045-.027A.52.52 0 0 1 5.899.43l.033-.014a.57.57 0 0 1 .064-.024L6.03.383a.57.57 0 0 1 .065-.014l.032-.004A.59.59 0 0 1 6.201.36z"/>
</symbol><symbol id="icon-theme-dark" viewBox="0 0 24 24">
    <path d="M8 2.3c.4-.1.7 0 1 .3.3.3.4.7.3 1C9.1 4.4 9 5.2 9 6c0 5 4 9 9 9 .8 0 1.6-.1 2.4-.3.3-.1.7 0 .9.2.3.3.4.7.3 1C20.3 20.7 15.9 24 11 24 4.9 24 0 19.1 0 13 0 8.1 3.3 3.7 8 2.3zM21 6c.6 0 1 .4 1 1v1h1c.6 0 1 .4 1 1s-.4 1-1 1h-1v1c0 .6-.4 1-1 1s-1-.4-1-1v-1h-1c-.6 0-1-.4-1-1s.4-1 1-1h1V7c0-.6.4-1 1-1zm-6-6c.6 0 1 .4 1 1v1h1c.6 0 1 .4 1 1s-.4 1-1 1h-1v1c0 .6-.4 1-1 1s-1-.4-1-1V4h-1c-.6 0-1-.4-1-1s.4-1 1-1h1V1c0-.6.4-1 1-1z"/>
</symbol><symbol id="icon-theme-light" viewBox="0 0 24 23">
    <path d="M12 5a7 7 0 0 1 7 7 6.993 6.993 0 0 1-3.932 6.286l-.068.031V22a1 1 0 0 1-.883.993L14 23h-4a1 1 0 0 1-1-1v-3.682l-.068-.032a6.994 6.994 0 0 1-3.927-6.016L5 12a7 7 0 0 1 7-7zm0 2a5 5 0 0 0-5 5 4.994 4.994 0 0 0 3.334 4.708 1 1 0 0 1 .666.943V21h2v-3.349a1 1 0 0 1 .551-.893l.116-.049A4.997 4.997 0 0 0 17 12a5 5 0 0 0-5-5zm-9 4a1 1 0 0 1 .117 1.993L3 13H1a1 1 0 0 1-.117-1.993L1 11h2zm20 0a1 1 0 0 1 .117 1.993L23 13h-2a1 1 0 0 1-.117-1.993L21 11h2zM4.835 3.432l.094.083 1.414 1.414a1 1 0 0 1-1.32 1.497l-.094-.083-1.414-1.414a1 1 0 0 1 1.32-1.497zm15.65.083a1 1 0 0 1 .083 1.32l-.083.094-1.414 1.414a1 1 0 0 1-1.497-1.32l.083-.094 1.414-1.414a1 1 0 0 1 1.414 0zM12 0a1 1 0 0 1 .993.883L13 1v2a1 1 0 0 1-1.993.117L11 3V1a1 1 0 0 1 1-1z"/>
</symbol><symbol id="icon-time-clock" viewBox="0 0 15 15">
    <path d="M7.5 0a7.5 7.5 0 1 1 0 15 7.5 7.5 0 1 1 0-15zm0 1a6.5 6.5 0 1 0 0 13 6.5 6.5 0 1 0 0-13zm0 10a.5.5 0 0 1 .492.41L8 11.5v1a.5.5 0 0 1-.992.09L7 12.5v-1a.5.5 0 0 1 .5-.5zM4.784 4.089l.069.058L7.707 7H12.5a.5.5 0 0 1 .492.41L13 7.5a.5.5 0 0 1-.41.492L12.5 8h-5a.5.5 0 0 1-.294-.095l-.06-.051-3-3a.5.5 0 0 1 .638-.765zM3.5 7a.5.5 0 0 1 .09.992L3.5 8h-1a.5.5 0 0 1-.09-.992L2.5 7h1zm4-5a.5.5 0 0 1 .492.41L8 2.5v1a.5.5 0 0 1-.992.09L7 3.5v-1a.5.5 0 0 1 .5-.5z"/>
</symbol><symbol id="icon-verify" viewBox="0 0 17 16">
    <path d="M10 0a7.008 7.008 0 0 0-6.993 6.687L1.168 9.445a1 1 0 0 0 .385 1.455L3 11.618V13.5A2.5 2.5 0 0 0 5.5 16H8a3 3 0 0 0 3-3V8.723a2 2 0 1 1 2 0V13a4.948 4.948 0 0 1-1.026 3H14a1 1 0 0 0 1-1v-3.111A6.993 6.993 0 0 0 10 0z"/>
</symbol><symbol id="icon-wallet" viewBox="0 0 22 20">
    <path d="M15.318.25a6 6 0 0 1 5.998 5.998v7.177a6 6 0 0 1-5.998 5.998H6.675a6 6 0 0 1-5.998-5.998V6.248A6 6 0 0 1 6.675.25zm0 1.5H6.675a4.5 4.5 0 0 0-4.498 4.498v7.177a4.5 4.5 0 0 0 4.498 4.498h8.643a4.5 4.5 0 0 0 4.498-4.498l-.001-.28-3.298.001a3.444 3.444 0 0 1-3.442-3.441 3.442 3.442 0 0 1 3.253-3.436l.189-.005h3.297l.001-.015a4.5 4.5 0 0 0-4.286-4.493l-.212-.005zm4.497 6.013h-3.297a1.943 1.943 0 0 0-1.943 1.941 1.944 1.944 0 0 0 1.79 1.936l.152.006 3.297-.001V7.763zm-2.839 1.13a.75.75 0 0 1 .102 1.493l-.102.007h-.312a.75.75 0 0 1-.102-1.493l.102-.007h.312zm-5.614-4.105a.75.75 0 0 1 .102 1.493l-.102.007H5.963a.75.75 0 0 1-.102-1.493l.102-.007h5.399z"/>
</symbol><symbol id="icon-withdraw" viewBox="0 0 16 16">
    <path d="M14.864 16h-9v-2h8V2h-10v6h-2V1a1 1 0 0 1 1-1h12a1 1 0 0 1 1 1v14a1 1 0 0 1-1 1z"/>
    <path d="M11.864 4h-6l2.293 2.293L.45 14l1.414 1.414L9.57 7.707 11.864 10V4z"/>
</symbol></svg>