<svg width="135" height="40" viewBox="0 0 135 40" fill="none" xmlns="http://www.w3.org/2000/svg">
<path d="M130.197 40H4.729C2.122 40 0 37.872 0 35.267V4.726C0 2.12 2.122 0 4.729 0H130.197C132.803 0 135 2.12 135 4.726V35.267C135 37.872 132.803 40 130.197 40Z" fill="#A6A6A6"/>
<path d="M134.032 35.268C134.032 37.384 132.318 39.098 130.198 39.098H4.72914C2.61014 39.098 0.890137 37.384 0.890137 35.268V4.72501C0.890137 2.61001 2.61014 0.890015 4.72914 0.890015H130.197C132.318 0.890015 134.031 2.61001 134.031 4.72501L134.032 35.268Z" fill="#1B1D21"/>
<path d="M30.1281 19.784C30.0991 16.561 32.7671 14.993 32.8891 14.92C31.3781 12.717 29.0361 12.416 28.2131 12.392C26.2461 12.185 24.3381 13.569 23.3361 13.569C22.3141 13.569 20.7711 12.412 19.1081 12.446C16.9681 12.479 14.9661 13.718 13.8681 15.642C11.6021 19.565 13.2921 25.33 15.4631 28.501C16.5491 30.054 17.8181 31.788 19.4791 31.727C21.1041 31.66 21.7111 30.691 23.6721 30.691C25.6151 30.691 26.1851 31.727 27.8791 31.688C29.6231 31.66 30.7211 30.128 31.7691 28.561C33.0241 26.781 33.5281 25.028 33.5481 24.938C33.5071 24.924 30.1611 23.647 30.1281 19.784Z" fill="white"/>
<path d="M26.928 10.306C27.802 9.21301 28.4 7.72601 28.234 6.21701C26.969 6.27301 25.387 7.09201 24.476 8.16101C23.67 9.10301 22.95 10.647 23.136 12.099C24.557 12.205 26.016 11.382 26.928 10.306Z" fill="white"/>
<path fill-rule="evenodd" clip-rule="evenodd" d="M51.3742 31.504H53.6452L49.3402 18.196H46.6942L42.4102 31.504H44.6212L45.8062 27.595H50.1302L51.3742 31.504ZM48.6302 22.48L49.7552 25.955H46.1822L47.2872 22.48C47.5772 21.375 47.7882 20.539 47.9192 19.973H47.9592C48.2882 21.289 48.5112 22.125 48.6302 22.48Z" fill="white"/>
<path fill-rule="evenodd" clip-rule="evenodd" d="M63.3389 30.457C64.2209 29.51 64.6619 28.22 64.6619 26.588C64.6619 25.127 64.2839 23.949 63.5259 23.053C62.7699 22.158 61.8249 21.711 60.6929 21.711C59.2449 21.711 58.1659 22.283 57.4549 23.429H57.4149L57.2959 21.908H55.4209C55.4729 22.988 55.4999 24.041 55.4999 25.067V35.414H57.6319V30.359H57.6719C58.2249 31.267 59.1329 31.721 60.3969 31.721C61.5679 31.721 62.5489 31.3 63.3389 30.457ZM61.8579 24.356C62.2799 24.962 62.4899 25.732 62.4899 26.666C62.4899 27.68 62.2659 28.496 61.8179 29.115C61.3709 29.733 60.7459 30.043 59.9429 30.043C59.2589 30.043 58.7029 29.803 58.2749 29.322C57.8469 28.841 57.6329 28.252 57.6329 27.554V25.954C57.6329 25.784 57.6659 25.568 57.7319 25.304C57.8629 24.738 58.1429 24.281 58.5709 23.931C58.9979 23.584 59.4759 23.408 60.0019 23.408C60.7779 23.408 61.3969 23.724 61.8579 24.356Z" fill="white"/>
<path fill-rule="evenodd" clip-rule="evenodd" d="M74.375 30.457C75.258 29.51 75.699 28.22 75.699 26.588C75.699 25.127 75.32 23.949 74.565 23.053C73.807 22.158 72.862 21.711 71.731 21.711C70.282 21.711 69.203 22.283 68.493 23.429H68.453L68.334 21.908H66.459C66.511 22.988 66.538 24.041 66.538 25.067V35.414H68.67V30.359H68.71C69.262 31.267 70.17 31.721 71.434 31.721C72.605 31.721 73.586 31.3 74.375 30.457ZM72.894 24.356C73.316 24.962 73.527 25.732 73.527 26.666C73.527 27.68 73.303 28.496 72.855 29.115C72.408 29.733 71.783 30.043 70.98 30.043C70.294 30.043 69.738 29.802 69.31 29.322C68.884 28.841 68.67 28.252 68.67 27.554V25.954C68.67 25.784 68.704 25.568 68.769 25.304C68.9 24.738 69.179 24.281 69.607 23.931C70.035 23.584 70.512 23.408 71.039 23.408C71.816 23.408 72.433 23.724 72.894 24.356Z" fill="white"/>
<path d="M88.0392 27.772C88.0392 28.904 87.6462 29.825 86.8572 30.536C85.9902 31.313 84.7832 31.701 83.2322 31.701C81.8002 31.701 80.6522 31.425 79.7832 30.872L80.2772 29.095C81.2132 29.661 82.2402 29.945 83.3592 29.945C84.1622 29.945 84.7872 29.763 85.2362 29.401C85.6832 29.039 85.9062 28.553 85.9062 27.947C85.9062 27.407 85.7222 26.952 85.3532 26.583C84.9862 26.214 84.3732 25.871 83.5172 25.554C81.1872 24.685 80.0232 23.412 80.0232 21.738C80.0232 20.644 80.4312 19.747 81.2482 19.049C82.0622 18.35 83.1482 18.001 84.5062 18.001C85.7172 18.001 86.7232 18.212 87.5262 18.633L86.9932 20.371C86.2432 19.963 85.3952 19.759 84.4462 19.759C83.6962 19.759 83.1102 19.944 82.6902 20.312C82.3352 20.641 82.1572 21.042 82.1572 21.517C82.1572 22.043 82.3602 22.478 82.7682 22.82C83.1232 23.136 83.7682 23.478 84.7042 23.847C85.8492 24.308 86.6902 24.847 87.2312 25.465C87.7702 26.081 88.0392 26.852 88.0392 27.772Z" fill="white"/>
<path d="M95.0881 23.508H92.7381V28.167C92.7381 29.352 93.1521 29.944 93.9821 29.944C94.3631 29.944 94.6791 29.911 94.9291 29.845L94.9881 31.464C94.5681 31.621 94.0151 31.7 93.3301 31.7C92.4881 31.7 91.8301 31.443 91.3551 30.93C90.8821 30.416 90.6441 29.554 90.6441 28.343V23.506H89.2441V21.906H90.6441V20.149L92.7381 19.517V21.906H95.0881V23.508Z" fill="white"/>
<path fill-rule="evenodd" clip-rule="evenodd" d="M104.427 30.26C105.269 29.313 105.691 28.102 105.691 26.627C105.691 25.192 105.283 24.021 104.465 23.114C103.61 22.179 102.477 21.712 101.069 21.712C99.608 21.712 98.446 22.186 97.585 23.134C96.722 24.081 96.292 25.299 96.292 26.786C96.292 28.207 96.71 29.386 97.546 30.32C98.382 31.254 99.503 31.721 100.911 31.721C102.372 31.721 103.544 31.235 104.427 30.26ZM102.907 24.419C103.29 25.052 103.479 25.811 103.479 26.696C103.479 27.58 103.281 28.347 102.888 28.992C102.427 29.77 101.788 30.16 100.974 30.16C100.143 30.16 99.499 29.778 99.038 29.012C98.655 28.38 98.466 27.621 98.466 26.736C98.466 25.824 98.655 25.053 99.038 24.419C99.485 23.654 100.136 23.271 100.993 23.271C101.821 23.271 102.46 23.653 102.907 24.419Z" fill="white"/>
<path d="M112.621 23.783C112.41 23.744 112.185 23.724 111.949 23.724C111.199 23.724 110.619 24.007 110.211 24.574C109.856 25.074 109.678 25.706 109.678 26.469V31.504H107.547L107.567 24.93C107.567 23.824 107.54 22.817 107.487 21.909H109.344L109.422 23.745H109.481C109.706 23.114 110.061 22.606 110.547 22.225C111.022 21.882 111.535 21.711 112.088 21.711C112.285 21.711 112.463 21.725 112.621 21.75V23.783Z" fill="white"/>
<path fill-rule="evenodd" clip-rule="evenodd" d="M122.078 27.219C122.131 26.956 122.156 26.634 122.156 26.252C122.156 25.055 121.873 24.047 121.31 23.232C120.599 22.206 119.552 21.693 118.169 21.693C116.761 21.693 115.642 22.206 114.814 23.232C114.023 24.193 113.628 25.398 113.628 26.845C113.628 28.319 114.053 29.494 114.901 30.369C115.751 31.244 116.919 31.682 118.407 31.682C119.644 31.682 120.716 31.485 121.624 31.089L121.29 29.609C120.513 29.912 119.649 30.063 118.702 30.063C117.846 30.063 117.149 29.839 116.61 29.392C116.016 28.892 115.707 28.167 115.682 27.219H122.078ZM119.709 24.06C119.998 24.521 120.137 25.067 120.123 25.699V25.698H115.682C115.747 25.054 115.958 24.501 116.313 24.04C116.746 23.46 117.313 23.171 118.01 23.171C118.773 23.171 119.34 23.467 119.709 24.06Z" fill="white"/>
<path fill-rule="evenodd" clip-rule="evenodd" d="M47.9918 12.667C48.6968 12.072 49.0498 11.186 49.0498 10.009C49.0498 8.96101 48.7228 8.15601 48.0708 7.59301C47.4888 7.09501 46.6258 6.84601 45.4808 6.84601C44.8328 6.84601 44.2328 6.89201 43.6758 6.98201V13.413C44.1028 13.465 44.6128 13.491 45.2088 13.491C46.4108 13.491 47.3388 13.216 47.9918 12.667ZM47.3388 8.28201C47.7428 8.69001 47.9448 9.27501 47.9448 10.038C47.9448 10.892 47.7248 11.542 47.2888 11.988C46.8528 12.434 46.2338 12.657 45.4318 12.657C45.0888 12.657 44.8528 12.648 44.7238 12.628V7.73901C44.9568 7.69301 45.2378 7.67101 45.5678 7.67101C46.3448 7.67101 46.9348 7.87501 47.3388 8.28201Z" fill="white"/>
<path fill-rule="evenodd" clip-rule="evenodd" d="M54.288 12.822C54.702 12.356 54.909 11.762 54.909 11.037C54.909 10.333 54.708 9.75699 54.308 9.31099C53.887 8.85199 53.331 8.62299 52.639 8.62299C51.921 8.62299 51.351 8.85599 50.927 9.32099C50.503 9.78599 50.292 10.385 50.292 11.115C50.292 11.813 50.497 12.392 50.907 12.851C51.318 13.311 51.869 13.54 52.561 13.54C53.279 13.54 53.854 13.301 54.288 12.822ZM53.541 9.95199C53.728 10.263 53.822 10.636 53.822 11.071C53.822 11.506 53.725 11.882 53.531 12.199C53.305 12.582 52.991 12.773 52.591 12.773C52.183 12.773 51.867 12.585 51.64 12.209C51.453 11.898 51.359 11.525 51.359 11.09C51.359 10.642 51.452 10.263 51.64 9.95199C51.86 9.57599 52.18 9.38799 52.601 9.38799C53.008 9.38799 53.321 9.57599 53.541 9.95199Z" fill="white"/>
<path d="M62.7646 8.71899L61.2896 13.433H60.3296L59.7186 11.386C59.5636 10.875 59.4376 10.367 59.3396 9.86299H59.3206C59.2296 10.381 59.1036 10.888 58.9416 11.386L58.2926 13.433H57.3216L55.9346 8.71899H57.0116L57.5446 10.96C57.6736 11.49 57.7796 11.995 57.8646 12.473H57.8836C57.9616 12.079 58.0906 11.577 58.2726 10.97L58.9416 8.71999H59.7956L60.4366 10.922C60.5916 11.459 60.7176 11.976 60.8146 12.474H60.8436C60.9146 11.989 61.0216 11.472 61.1636 10.922L61.7356 8.71999H62.7646V8.71899Z" fill="white"/>
<path d="M68.1974 13.433H67.1494V10.733C67.1494 9.901 66.8334 9.485 66.1994 9.485C65.8884 9.485 65.6374 9.599 65.4424 9.828C65.2494 10.057 65.1514 10.327 65.1514 10.636V13.432H64.1034V10.066C64.1034 9.652 64.0904 9.203 64.0654 8.717H64.9864L65.0354 9.454H65.0644C65.1864 9.225 65.3684 9.036 65.6074 8.885C65.8914 8.709 66.2094 8.62 66.5574 8.62C66.9974 8.62 67.3634 8.762 67.6544 9.047C68.0164 9.396 68.1974 9.917 68.1974 10.609V13.433Z" fill="white"/>
<path d="M71.088 13.433H70.041V6.556H71.088V13.433Z" fill="white"/>
<path fill-rule="evenodd" clip-rule="evenodd" d="M76.6366 12.822C77.0506 12.356 77.2576 11.762 77.2576 11.037C77.2576 10.333 77.0566 9.75699 76.6566 9.31099C76.2346 8.85199 75.6796 8.62299 74.9866 8.62299C74.2696 8.62299 73.6996 8.85599 73.2756 9.32099C72.8516 9.78599 72.6406 10.385 72.6406 11.115C72.6406 11.813 72.8456 12.392 73.2556 12.851C73.6656 13.311 74.2166 13.54 74.9096 13.54C75.6266 13.54 76.2026 13.301 76.6366 12.822ZM75.8886 9.95199C76.0756 10.263 76.1696 10.636 76.1696 11.071C76.1696 11.506 76.0736 11.882 75.8786 12.199C75.6526 12.582 75.3396 12.773 74.9396 12.773C74.5316 12.773 74.2156 12.585 73.9886 12.209C73.8016 11.898 73.7076 11.525 73.7076 11.09C73.7076 10.642 73.8006 10.263 73.9886 9.95199C74.2076 9.57599 74.5276 9.38799 74.9496 9.38799C75.3556 9.38799 75.6696 9.57599 75.8886 9.95199Z" fill="white"/>
<path fill-rule="evenodd" clip-rule="evenodd" d="M81.389 13.433H82.33C82.285 13.155 82.262 12.78 82.262 12.309V10.573C82.262 9.27299 81.644 8.62299 80.412 8.62299C79.774 8.62299 79.233 8.75899 78.795 9.02999L79.008 9.71799C79.362 9.48599 79.772 9.36899 80.237 9.36899C80.89 9.36899 81.216 9.67899 81.216 10.3V10.388C80.343 10.381 79.665 10.53 79.183 10.834C78.7 11.138 78.46 11.577 78.46 12.153C78.46 12.534 78.583 12.855 78.829 13.113C79.1 13.397 79.46 13.54 79.905 13.54C80.501 13.54 80.96 13.323 81.282 12.89H81.311L81.389 13.433ZM81.242 11.086V11.813C81.242 11.884 81.236 11.946 81.225 11.997C81.18 12.224 81.059 12.409 80.862 12.555C80.666 12.7 80.451 12.773 80.221 12.773C80.016 12.773 79.844 12.712 79.709 12.589C79.574 12.466 79.508 12.282 79.508 12.036C79.508 11.383 80.086 11.066 81.242 11.086Z" fill="white"/>
<path fill-rule="evenodd" clip-rule="evenodd" d="M87.3552 13.433H88.2852C88.2602 13.045 88.2482 12.622 88.2482 12.163V6.556H87.1992V9.262H87.1792C86.9272 8.835 86.4842 8.622 85.8512 8.622C85.2752 8.622 84.7912 8.842 84.3962 9.282C83.9882 9.754 83.7852 10.372 83.7852 11.135C83.7852 11.846 83.9722 12.425 84.3472 12.871C84.7222 13.317 85.1952 13.54 85.7632 13.54C86.4742 13.54 86.9802 13.252 87.2772 12.676H87.3062L87.3552 13.433ZM87.1992 10.659V11.445C87.1992 11.781 87.1002 12.069 86.8982 12.308C86.6892 12.567 86.4142 12.696 86.0702 12.696C85.6872 12.696 85.3812 12.541 85.1542 12.231C84.9392 11.94 84.8322 11.562 84.8322 11.096C84.8322 10.611 84.9452 10.214 85.1682 9.903C85.3932 9.592 85.6992 9.437 86.0902 9.437C86.3612 9.437 86.5962 9.523 86.7912 9.694C86.9842 9.865 87.1112 10.077 87.1702 10.329C87.1892 10.413 87.1992 10.523 87.1992 10.659Z" fill="white"/>
<path fill-rule="evenodd" clip-rule="evenodd" d="M96.6269 12.822C97.0409 12.356 97.2479 11.762 97.2479 11.037C97.2479 10.333 97.0469 9.75699 96.6469 9.31099C96.2269 8.85199 95.6699 8.62299 94.9789 8.62299C94.2599 8.62299 93.6899 8.85599 93.2659 9.32099C92.8419 9.78599 92.6309 10.385 92.6309 11.115C92.6309 11.813 92.8359 12.392 93.2459 12.851C93.6579 13.311 94.2089 13.54 94.8999 13.54C95.6189 13.54 96.1929 13.301 96.6269 12.822ZM95.8809 9.95199C96.0679 10.263 96.1619 10.636 96.1619 11.071C96.1619 11.506 96.0639 11.882 95.8709 12.199C95.6449 12.582 95.3299 12.773 94.9299 12.773C94.5219 12.773 94.2059 12.585 93.9789 12.209C93.7919 11.898 93.6979 11.525 93.6979 11.09C93.6979 10.642 93.7909 10.263 93.9789 9.95199C94.1999 9.57599 94.5199 9.38799 94.9399 9.38799C95.3479 9.38799 95.6599 9.57599 95.8809 9.95199Z" fill="white"/>
<path d="M102.883 13.433H101.836V10.733C101.836 9.901 101.52 9.485 100.885 9.485C100.574 9.485 100.323 9.599 100.129 9.828C99.935 10.057 99.838 10.327 99.838 10.636V13.432H98.789V10.066C98.789 9.652 98.777 9.203 98.752 8.717H99.672L99.721 9.454H99.75C99.873 9.225 100.055 9.036 100.293 8.885C100.578 8.709 100.895 8.62 101.244 8.62C101.683 8.62 102.049 8.762 102.34 9.047C102.703 9.396 102.883 9.917 102.883 10.609V13.433Z" fill="white"/>
<path d="M109.935 9.50401H108.781V11.794C108.781 12.376 108.986 12.667 109.392 12.667C109.58 12.667 109.736 12.651 109.859 12.618L109.886 13.413C109.679 13.491 109.407 13.53 109.072 13.53C108.658 13.53 108.336 13.404 108.103 13.152C107.869 12.9 107.753 12.476 107.753 11.881V9.50401H107.064V8.71901H107.753V7.85501L108.78 7.54501V8.71801H109.934V9.50401H109.935Z" fill="white"/>
<path d="M115.484 13.433H114.435V10.753C114.435 9.908 114.119 9.485 113.486 9.485C113 9.485 112.668 9.73 112.486 10.22C112.455 10.323 112.437 10.449 112.437 10.597V13.432H111.39V6.556H112.437V9.397H112.457C112.787 8.88 113.26 8.622 113.873 8.622C114.307 8.622 114.666 8.764 114.951 9.049C115.306 9.404 115.484 9.932 115.484 10.63V13.433Z" fill="white"/>
<path fill-rule="evenodd" clip-rule="evenodd" d="M121.168 11.328C121.193 11.199 121.207 11.041 121.207 10.853C121.207 10.265 121.068 9.77001 120.787 9.37001C120.439 8.86601 119.924 8.61401 119.246 8.61401C118.553 8.61401 118.004 8.86601 117.598 9.37001C117.209 9.84201 117.016 10.434 117.016 11.145C117.016 11.869 117.223 12.446 117.641 12.876C118.057 13.306 118.632 13.521 119.362 13.521C119.971 13.521 120.497 13.424 120.944 13.23L120.78 12.502C120.398 12.651 119.974 12.725 119.509 12.725C119.089 12.725 118.746 12.615 118.48 12.395C118.189 12.149 118.039 11.794 118.025 11.328H121.168ZM120.004 9.77701C120.146 10.003 120.215 10.271 120.207 10.582H118.025C118.059 10.265 118.162 9.99401 118.336 9.76701C118.549 9.48201 118.828 9.34001 119.17 9.34001C119.545 9.34001 119.822 9.48601 120.004 9.77701Z" fill="white"/>
</svg>
