<svg width="24" height="24" viewBox="0 0 24 24" fill="none" xmlns="http://www.w3.org/2000/svg">
<path d="M20 16H16.7C16.8657 16.6579 16.955 17.3327 16.966 18.011C16.96 18.559 16.514 19 15.966 19H7V17H15C15 14.7909 13.2091 13 11 13H7C5.8 11.289 3.305 11 2.1 11H0V19.5L8.192 23.263C9.19998 23.7665 10.3631 23.8625 11.44 23.531L24 19.667C24 19.667 23.208 16 20 16Z" fill="white"/>
<path fill-rule="evenodd" clip-rule="evenodd" d="M9 6C9 2.68629 11.6863 0 15 0C18.3123 0.00330738 20.9967 2.68766 21 6C21 9.31371 18.3137 12 15 12C11.6863 12 9 9.31371 9 6ZM14 9H16V3H14V9Z" fill="white"/>
</svg>
