<svg xmlns="http://www.w3.org/2000/svg" width="134" height="39" viewBox="0 0 134 39">
  <defs>
    <linearGradient id="logo-white-a" x1="55.419%" x2="-26.074%" y1="-47.437%" y2="47.418%">
      <stop offset="0%" stop-color="#32C5FF"/>
      <stop offset="53.397%" stop-color="#B620E0"/>
      <stop offset="100%" stop-color="#FFAA12"/>
    </linearGradient>
    <linearGradient id="logo-white-b" x1="59.64%" x2="-7.01%" y1="15.461%" y2="35.796%">
      <stop offset="0%" stop-color="#FFF" stop-opacity=".475"/>
      <stop offset="100%" stop-color="#FFF" stop-opacity=".273"/>
    </linearGradient>
    <linearGradient id="logo-white-c" x1="70.892%" x2="16.832%" y1="29.001%" y2="46.987%">
      <stop offset="0%" stop-color="#FFF" stop-opacity=".201"/>
      <stop offset="100%" stop-color="#FFF" stop-opacity=".698"/>
    </linearGradient>
  </defs>
  <g fill="none" fill-rule="evenodd">
    <path fill="#FFF" d="M91.6204,10.6288 C92.3401,10.6288 92.9557,10.3883 93.467,9.9072 C93.9784,9.4261 94.2341,8.84849 94.2341,8.17425 C94.2341,7.50758 93.9784,6.93372 93.467,6.45265 C92.9557,5.97159 92.3363,5.73106 91.6091,5.73106 C90.8969,5.73106 90.2833,5.97159 89.7682,6.45265 C89.253,6.93372 88.9954,7.50758 88.9954,8.17425 C88.9954,8.84849 89.253,9.4261 89.7682,9.9072 C90.2833,10.3883 90.9007,10.6288 91.6204,10.6288 Z M60.7273,29.6004 C59.2803,30.3087 57.5947,30.6629 55.6705,30.6629 C53.7386,30.6629 52.0493,30.3087 50.6023,29.6004 C49.1553,28.892 48.0303,27.9015 47.2273,26.6288 C46.4243,25.3561 46.0227,23.8712 46.0227,22.1742 L46.0227,7.06061 L50.9432,7.06061 L50.9432,21.7538 C50.9432,22.6402 51.1383,23.428 51.5284,24.1174 C51.9186,24.8068 52.4697,25.3485 53.1818,25.7424 C53.8939,26.1364 54.7235,26.3333 55.6705,26.3333 C56.625,26.3333 57.4564,26.1364 58.1648,25.7424 C58.8731,25.3485 59.4224,24.8068 59.8125,24.1174 C60.2027,23.428 60.3977,22.6402 60.3977,21.7538 L60.3977,7.06061 L65.3182,7.06061 L65.3182,22.1742 C65.3182,23.8712 64.9148,25.3561 64.108,26.6288 C63.3011,27.9015 62.1742,28.892 60.7273,29.6004 Z M74.1182,20.2424 L74.1182,30.3333 L69.2773,30.3333 L69.2773,12.8788 L73.8909,12.8788 L73.8909,15.9583 L74.0955,15.9583 C74.4818,14.9432 75.1296,14.1383 76.0387,13.5436 C76.9478,12.9489 78.05,12.6515 79.3455,12.6515 C80.5576,12.6515 81.6144,12.9167 82.5159,13.447 C83.4174,13.9773 84.1182,14.733 84.6182,15.714 C85.1182,16.6951 85.3682,17.8636 85.3682,19.2197 L85.3682,30.3333 L80.5273,30.3333 L80.5273,20.0833 C80.5349,19.0152 80.2621,18.1799 79.7091,17.5777 C79.1561,16.9754 78.3947,16.6742 77.425,16.6742 C76.7735,16.6742 76.1996,16.8144 75.7034,17.0947 C75.2072,17.375 74.8209,17.7822 74.5443,18.3163 C74.2678,18.8504 74.1258,19.4924 74.1182,20.2424 Z M94.0182,12.8788 L94.0182,30.3333 L89.1772,30.3333 L89.1772,12.8788 L94.0182,12.8788 Z M104.864,30.572 C105.492,30.5492 106.026,30.4867 106.466,30.3845 C106.905,30.2822 107.246,30.1932 107.489,30.1174 L106.727,26.5152 C106.606,26.5379 106.432,26.5701 106.204,26.6117 C105.977,26.6534 105.75,26.6742 105.523,26.6742 C105.197,26.6742 104.911,26.625 104.665,26.5265 C104.418,26.428 104.227,26.2557 104.091,26.0095 C103.954,25.7633 103.886,25.4167 103.886,24.9697 L103.886,16.5153 L107.17,16.5152 L107.17,12.8788 L103.886,12.8793 L103.886,8.69697 L99.045,8.69697 L99.045,12.8793 L96.659,12.8788 L96.659,16.5152 L99.045,16.5153 L99.045,25.6061 C99.039,26.646 99.235,27.5232 99.635,28.2375 L99.761,28.447 C100.246,29.197 100.926,29.75 101.801,30.1061 C102.579,30.4226 103.472,30.5804 104.48,30.5797023 C104.606,30.5797023 104.734,30.577 104.864,30.572 Z M116.37,36.3049 C115.522,36.6875 114.499,36.8788 113.302,36.8788 C112.689,36.8788 112.115,36.8314 111.581,36.7367 C111.046,36.642 110.605,36.5227 110.257,36.3788 L111.348,32.7652 C111.916,32.9394 112.429,33.0341 112.887,33.0492 C113.346,33.0644 113.743,32.9583 114.081,32.7311 C114.418,32.5038 114.692,32.1174 114.904,31.572 L115.189,30.8333 L108.927,12.8788 L114.018,12.8788 L117.632,25.697 L117.814,25.697 L121.461,12.8788 L126.586,12.9015 L119.802,32.2197 C119.476,33.1591 119.035,33.9792 118.478,34.6799 C117.921,35.3807 117.219,35.9224 116.37,36.3049 Z"/>
    <polygon fill="#FFF" fill-rule="nonzero" points="133.605 30.333 133.605 25.318 128.589 25.318 128.589 30.333"/>
    <path fill="url(#logo-white-a)" d="M13.3189,1.64274 C15.7941,0.21368 18.8437,0.21368 21.3189,1.64274 L30.6394,7.02394 C33.1146,8.453 34.6394,11.094 34.6394,13.9521 L34.6394,24.7145 C34.6394,27.5727 33.1146,30.2137 30.6394,31.6427 L21.3189,37.0239 C18.8437,38.453 15.7941,38.453 13.3189,37.0239 L3.9984,31.6427 C1.52319,30.2137 -0.0016,27.5727 -0.0016,24.7145 L-0.0016,13.9521 C-0.0016,11.094 1.52319,8.453 3.9984,7.02394 L13.3189,1.64274 Z"/>
    <path fill="#FFF" d="M15.5842,17.8457 C16.6154,17.2458 17.8869,17.236 18.9272,17.82 L25.9404,21.7572 C26.5135,22.079 26.5135,22.9041 25.9404,23.2258 L18.9272,27.1631 C17.8869,27.7471 16.6154,27.7373 15.5843,27.1373 L8.8503,23.2194 C8.2921,22.8947 8.2921,22.0884 8.8503,21.7637 L15.5842,17.8457 Z"/>
    <path fill="url(#logo-white-b)" d="M7.5842,0.7501 C8.6154,0.1502 9.8869,0.1404 10.9272,0.7244 L17.9404,4.6616 C18.5135,4.9834 18.5135,5.8084 17.9404,6.1302 L10.9272,10.0675 C9.8869,10.6515 8.6154,10.6417 7.5843,10.0417 L0.8503,6.1238 C0.2921,5.799 0.2921,4.9928 0.8503,4.668 L7.5842,0.7501 Z" opacity=".9" transform="translate(8 17)"/>
    <path fill="#FFF" d="M15.5842,14.3564 C16.6154,13.7565 17.8869,13.7467 18.9272,14.3307 L25.9404,18.2679 C26.5135,18.5897 26.5135,19.4147 25.9404,19.7365 L18.9272,23.6738 C17.8869,24.2578 16.6154,24.248 15.5843,23.648 L8.8503,19.7301 C8.2921,19.4053 8.2921,18.5991 8.8503,18.2743 L15.5842,14.3564 Z"/>
    <path fill="url(#logo-white-c)" d="M15.5842,14.2414 C16.6154,13.6414 17.8869,13.6317 18.9272,14.2157 L25.9404,18.1529 C26.5135,18.4747 26.5135,19.2997 25.9404,19.6215 L18.9272,23.5587 C17.8869,24.1427 16.6154,24.133 15.5843,23.533 L8.8503,19.6151 C8.2921,19.2903 8.2921,18.4841 8.8503,18.1593 L15.5842,14.2414 Z"/>
    <path fill="#FFF" d="M15.5842,10.7327 C16.6154,10.1327 17.8869,10.123 18.9272,10.707 L25.9404,14.6442 C26.5135,14.966 26.5135,15.791 25.9404,16.1128 L18.9272,20.05 C17.8869,20.634 16.6154,20.6243 15.5843,20.0243 L8.8503,16.1064 C8.2921,15.7816 8.2921,14.9754 8.8503,14.6506 L15.5842,10.7327 Z"/>
  </g>
</svg>
