<svg width="28" height="32" viewBox="0 0 28 32" fill="none" xmlns="http://www.w3.org/2000/svg">
<path d="M17.618 17.55C20.8588 19.8281 25.2808 19.3809 28 16.5C26.4935 14.9033 24.3951 13.9988 22.2 14C22.132 14 22.066 14.009 22 14.01V14C18.6256 14.0045 15.5372 15.8961 14 18.9C12.4627 15.8961 9.37434 14.0045 5.99995 14C3.80476 13.9987 1.7063 14.9032 0.199951 16.5C2.88312 19.3468 7.23729 19.8216 10.471 17.62C12.0726 18.9476 12.9997 20.9197 13 23H7.99995C7.70993 23 7.43419 23.1258 7.24422 23.345C7.05425 23.5641 6.96877 23.8549 7.00995 24.142L8.00995 31.142C8.08059 31.6344 8.50247 32.0001 8.99995 32H19C19.4974 32.0001 19.9193 31.6344 19.99 31.142L20.99 24.142C21.0311 23.8549 20.9457 23.5641 20.7557 23.345C20.5657 23.1258 20.29 23 20 23H15C15.0007 20.8803 15.9637 18.8755 17.618 17.55Z" fill="white"/>
<path fill-rule="evenodd" clip-rule="evenodd" d="M7 7C7 3.13401 10.134 0 14 0C17.8642 0.00440864 20.9956 3.13583 21 7C21 10.866 17.866 14 14 14C10.134 14 7 10.866 7 7ZM13 10H15V4H13V10Z" fill="white"/>
</svg>
