<svg width="25" height="22" viewBox="0 0 25 22" fill="none" xmlns="http://www.w3.org/2000/svg">
<path fill-rule="evenodd" clip-rule="evenodd" d="M21.6326 10.211C21.3696 10.85 20.9546 11.403 20.4456 11.854L24.9746 14.118V21C24.9746 21.552 24.5266 22 23.9746 22H1.97456C1.42256 22 0.974564 21.552 0.974564 21V15.934L6.98456 11.259L10.9396 14.225L14.5006 11.852C13.9986 11.406 13.5856 10.861 13.3226 10.232L11.0086 11.776L6.96356 8.742L0.974564 13.4V1C0.974564 0.448 1.42256 0 1.97456 0H23.9746C24.5266 0 24.9746 0.448 24.9746 1V11.882L21.6326 10.211ZM17.9746 20V10.949C19.1146 10.717 19.9746 9.707 19.9746 8.5C19.9746 7.293 19.1146 6.283 17.9746 6.051V2H16.9746V6.051C15.8346 6.283 14.9746 7.293 14.9746 8.5C14.9746 9.707 15.8346 10.717 16.9746 10.949V20H17.9746Z" fill="white"/>
</svg>
